<?xml version="1.0" standalone="no"?>
<!DOCTYPE svg PUBLIC "-//W3C//DTD SVG 1.1//EN" "http://www.w3.org/Graphics/SVG/1.1/DTD/svg11.dtd" >
<!--
2013-9-30: Created.
-->
<svg>
<metadata>
Created by iconfont
</metadata>
<defs>

<font id="iconfont" horiz-adv-x="1024" >
  <font-face
    font-family="iconfont"
    font-weight="500"
    font-stretch="normal"
    units-per-em="1024"
    ascent="896"
    descent="-128"
  />
    <missing-glyph />
    
    <glyph glyph-name="changdi" unicode="&#58900;" d="M742.4 527.940267h362.939733c12.526933 0 18.773333 6.2464 25.053867 12.4928 6.2464 6.280533 12.4928 18.773333 6.2464 31.300266l-56.32 281.6c-6.2464 18.773333-18.773333 31.300267-37.546667 31.300267h-312.900266c-18.773333 0-37.546667-18.773333-37.546667-37.546667l12.526933-281.6c0-18.773333 12.526933-37.546667 37.546667-37.546666zM567.1936 884.6336H254.293333c-18.773333 0-31.300267-12.526933-37.546666-31.300267L22.766933-60.3136c-6.280533-18.773333 0-31.266133 6.2464-43.793067 12.526933-6.2464 25.019733-12.526933 31.300267-12.526933h469.333333c25.019733 0 43.793067 25.053867 43.793067 50.0736l31.300267 913.646933c0 18.773333-12.526933 37.546667-37.546667 37.546667z m707.106133-944.9472l-93.866666 431.786667c-6.2464 18.773333-25.019733 37.546667-43.793067 37.546666H748.6464c-12.4928 0-18.773333-6.2464-25.019733-12.4928a47.786667 47.786667 0 0 1-12.526934-31.300266L723.626667-66.56c0-25.019733 18.773333-50.0736 43.793066-50.0736h469.333334c12.526933 0 18.773333 6.280533 31.300266 12.526933 6.2464 12.526933 6.2464 25.019733 6.2464 43.793067z"  horiz-adv-x="1297" />

    
    <glyph glyph-name="jiebei" unicode="&#58930;" d="M1130.094704 251.986895C998.169371 285.876419 887.650514 351.583086 837.742704 373.672229 773.13318 402.246705 735.976609 379.182324 586.472609 346.097371 436.968609 312.988038 372.456609 309.306514 372.456609 309.306514 350.97699 273.198324 378.746895 214.391467 428.28899 198.958324 477.831085 183.525181 660.078704 200.762514 707.450895 208.149943 730.320228 211.733943 733.294704 184.25661 706.207466 157.047467 677.194133 127.887848 603.344228 103.433752 547.877561 87.00099 467.615466 63.229562 353.829561 97.801752 353.829561 97.801752 353.829561 97.801752 195.84099 184.914895 93.294704 208.149943-9.275963 231.409371 0.232609 143.784229 0.232609 143.784229 0.232609 143.784229 191.793752 19.343848 251.478323-12.522057 311.162895-44.412343 402.810895-128.989867 484.121371-122.870248 565.431847-116.750629 857.296228-40.974629 921.491276-49.312914 949.992609-53.018819 994.439085-64.55101 1036.30118-74.522819 1037.471466-74.79101 1038.641752-75.083581 1039.812037-75.351771 1043.225371-76.448914 1046.711847-77.521676 1050.490895-77.521676 1062.973942-77.521676 1073.457752-70.69501 1079.845561-60.942629 1081.284037-58.211962 1082.722514-55.115581 1084.16099-52.092343 1114.417752 11.541943 1145.162133 138.20099 1159.741942 203.054324 1164.618133 224.753371 1151.525561 246.4768 1130.094704 251.986895ZM158.230932 749.714286 641.802742 749.714286C682.20198 749.714286 714.945599 782.457905 714.945599 822.857143 714.945599 863.256381 682.20198 896 641.802742 896L158.230932 896C117.831694 896 85.088075 863.256381 85.088075 822.857143 85.088075 782.457905 117.831694 749.714286 158.230932 749.714286ZM158.230932 486.28541 641.802742 486.28541C682.20198 486.28541 714.945599 519.029029 714.945599 559.428267 714.945599 599.827505 682.20198 632.571124 641.802742 632.571124L158.230932 632.571124C117.831694 632.571124 85.088075 599.827505 85.088075 559.428267 85.088075 519.029029 117.831694 486.28541 158.230932 486.28541Z"  horiz-adv-x="1171" />

    
    <glyph glyph-name="jiancha" unicode="&#58918;" d="M727.04 232.448c95.232 118.784 76.288 292.864-42.496 388.096s-292.864 76.288-388.096-42.496-76.288-292.864 42.496-388.096c93.696-75.264 225.28-81.408 325.12-14.848l60.416-60.416-9.216-9.216c-11.776-11.776-11.776-30.208 0-41.984l94.208-94.208c-199.168-141.824-477.184-123.392-655.872 55.296C-45.568 223.744-45.568 546.304 153.6 745.472c199.168 199.168 522.24 199.168 720.896 0 178.688-178.688 197.12-456.704 55.296-655.872l-94.208 94.208c-11.776 11.776-30.208 11.776-41.984 0l-9.216-9.216-57.344 57.856z m-215.552-18.432c-105.472 0-190.976 85.504-190.976 190.976 0 105.472 85.504 190.976 190.976 190.976 105.472 0 190.976-85.504 190.976-190.976 0.512-105.472-84.992-190.976-190.976-190.976z"  horiz-adv-x="1024" />

    
    <glyph glyph-name="gudingzichantouzijihua" unicode="&#58897;" d="M870.360696 793.555217h-214.209818a152.67087 152.67087 0 0 1-288.344755 0h-214.209818A102.394913 102.394913 0 0 1 51.200391 691.160304v-716.765391A102.394913 102.394913 0 0 1 153.595305-128h716.765391a102.394913 102.394913 0 0 1 102.394913 102.394913V691.160304a102.394913 102.394913 0 0 1-102.394913 102.394913zM307.188174 127.987783H204.793261V230.382696h102.394913zM255.990218 358.376587a76.795935 76.795935 0 1 0 76.796934 76.795935 76.795935 76.795935 0 0 0-76.796934-76.795935z m255.987782 435.17963a51.197957 51.197957 0 1 0-51.196956-51.197956 51.197957 51.197957 0 0 0 51.196956 51.196956z m307.185739-665.569434H460.780044V230.383696h358.382695z m0 255.988782H460.780044V486.369478h358.382695z"  horiz-adv-x="1024" />

    
    <glyph glyph-name="leibie" unicode="&#60332;" d="M420.864 423.936H81.92c-16.896 0-30.72 13.824-30.72 30.72V793.6c0 16.896 13.824 30.72 30.72 30.72h338.944c16.896 0 30.72-13.824 30.72-30.72v-338.944c0-16.896-13.824-30.72-30.72-30.72z m0-502.272H81.92c-16.896 0-30.72 13.824-30.72 30.72v338.944c0 16.896 13.824 30.72 30.72 30.72h338.944c16.896 0 30.72-13.824 30.72-30.72v-338.944c0-17.408-13.824-30.72-30.72-30.72z m345.088 461.312c-19.456 0-37.888 7.68-51.712 21.504l-173.568 173.568c-13.824 13.824-21.504 32.256-21.504 51.712s7.68 37.888 21.504 51.712L714.24 855.04c27.648 27.648 75.776 27.648 103.424 0l173.568-174.08c13.824-13.824 21.504-32.256 21.504-51.712s-7.68-37.888-21.504-51.712L817.664 404.48c-13.824-13.824-32.256-21.504-51.712-21.504z m-1.536 431.104l-183.296-182.784v-4.096l182.784-182.784s1.024-1.024 2.048-1.024l184.832 183.296v4.096L768 814.08h-3.584z m154.624-892.416h-338.944c-16.896 0-30.72 13.824-30.72 30.72v338.944c0 16.896 13.824 30.72 30.72 30.72h338.944c16.896 0 30.72-13.824 30.72-30.72v-338.944c0-17.408-13.824-30.72-30.72-30.72z"  horiz-adv-x="1024" />

    
    <glyph glyph-name="jiancha1" unicode="&#60165;" d="M829.44 808.96a30.72 30.72 0 0 0 30.72-30.72v-788.48a30.72 30.72 0 0 0-30.72-30.72H194.56a30.72 30.72 0 0 0-30.72 30.72V778.24a30.72 30.72 0 0 0 30.72 30.72h634.88z m-212.48-460.8c-74.93632 0-135.68-60.74368-135.68-135.68s60.74368-135.68 135.68-135.68c24.45312 0 47.39072 6.46656 67.20512 17.78688l53.5552-53.5552 0.65024-0.59392a10.24 10.24 0 0 1 13.82912 0.59904l36.20352 36.1984 0.59904 0.65536a10.24 10.24 0 0 1-0.59904 13.82912l-53.55008 53.5552A135.06048 135.06048 0 0 1 752.64 212.48c0 74.93632-60.74368 135.68-135.68 135.68z m0-71.68c35.34848 0 64-28.65152 64-64s-28.65152-64-64-64-64 28.65152-64 64 28.65152 64 64 64zM558.08 481.28H317.44a10.24 10.24 0 0 1-10.24-10.24v-51.2a10.24 10.24 0 0 1 10.24-10.24h240.64a10.24 10.24 0 0 1 10.24 10.24V471.04a10.24 10.24 0 0 1-10.24 10.24z m148.48 174.08H317.44a10.24 10.24 0 0 1-10.24-10.24v-51.2a10.24 10.24 0 0 1 10.24-10.24h389.12a10.24 10.24 0 0 1 10.24 10.24V645.12a10.24 10.24 0 0 1-10.24 10.24z"  horiz-adv-x="1024" />

    
    <glyph glyph-name="louyu" unicode="&#58895;" d="M128 0V794.224a32 32 0 0 0 37.26 31.564l320-53.332A32 32 0 0 0 512 740.892V640h352a32 32 0 0 0 32-32v-608h64v-64H64v64h64z m64 576v-64h256v64H192z m0-192v-64h256v64H192z m0-192v-64h256v64H192z m448 320v-128h128V512H640z m0-256v-128h128V256H640z"  horiz-adv-x="1024" />

    
    <glyph glyph-name="fangjian1" unicode="&#59119;" d="M153.6 765.867L546.133 864c19.2 4.267 36.267-6.4 42.667-25.6 0-2.133 2.133-6.4 2.133-10.667v-893.866c0-19.2-14.933-34.134-34.133-34.134h-6.4l-394.667 76.8c-25.6 4.267-44.8 27.734-44.8 53.334V712.533c0 25.6 19.2 46.934 42.667 53.334zM680.533-12.8H838.4c34.133 0 61.867 27.733 61.867 61.867v672c0 34.133-27.734 61.866-61.867 61.866H680.533V-12.8zM448 458.667c-23.467 0-44.8-32-44.8-72.534S422.4 313.6 448 313.6s44.8 32 44.8 72.533-21.333 72.534-44.8 72.534z"  horiz-adv-x="1024" />

    
    <glyph glyph-name="louceng" unicode="&#58961;" d="M936.448 406.1184a44.4416 44.4416 0 0 1-16.7936-3.328l-0.2048-0.0512a0.9728 0.9728 0 0 0-0.2048-0.1024L511.5392 236.032 103.7824 402.6368a1.024 1.024 0 0 1-0.1536 0.1024l-0.2048 0.0512A44.1344 44.1344 0 0 1 47.0528 378.88 43.2128 43.2128 0 0 1 69.7856 322.56l424.5504-173.4656 0.2048-0.1024 0.1536-0.0512c10.752-4.4544 22.8864-4.4544 33.6384 0h0.2048l0.2048 0.1024 424.4992 173.568a43.3152 43.3152 0 0 1-16.7936 83.456M69.7856 510.7712l424.4992-173.5168 0.2048-0.0512 0.2048-0.1024c10.752-4.4032 22.8352-4.4032 33.5872 0l0.2048 0.0512a1.024 1.024 0 0 0 0.2048 0.1024l424.4992 173.5168c16.4352 6.7072 27.136 22.528 27.136 40.0896a43.4176 43.4176 0 0 1-27.136 40.1408L528.7424 764.4672A0.9728 0.9728 0 0 1 528.5376 764.5184L528.3328 764.6208a44.2368 44.2368 0 0 1-33.5872 0l-0.2048-0.1024a1.024 1.024 0 0 0-0.2048 0L69.7856 590.8992a43.4176 43.4176 0 0 1-27.136-40.1408c0-17.5616 10.752-33.3824 27.136-40.0896m866.6624-292.7616a44.544 44.544 0 0 1-16.7936-3.2768l-0.2048-0.1024-0.2048-0.0512-407.7056-166.656-407.7568 166.656a0.9728 0.9728 0 0 1-0.1536 0.0512l-0.2048 0.1024a44.1344 44.1344 0 0 1-56.1664-24.064 43.2128 43.2128 0 0 1 22.528-56.1664l424.5504-173.5168 0.2048-0.1024h0.1536c10.752-4.4544 22.8864-4.4544 33.6384 0v-0.0512l0.2048 0.0512a1.1264 1.1264 0 0 0 0.2048 0.1024l424.4992 173.4656a43.3152 43.3152 0 0 1-16.7936 83.5584"  horiz-adv-x="1024" />

    
    <glyph glyph-name="bumen1" unicode="&#59003;" d="M946.025 225.069c-6.374-52.042-30.579-74.504-122.383-80.105 5.01 47.714-1.42 96.399-18.98 141.867-22.905 59.309-59.276 113.945-108.613 147.607 22.398 12.555 46.697 20.062 71.888 20.062 56.187 0 105.599-37.331 140.116-84.757 30.357-41.71 44.252-93.398 37.972-144.674zM767.5 470.5c-53.019 0-96 42.981-96 96s42.981 96 96 96 96-42.981 96-96-42.981-96-96-96z m9.647-340.827c-11.182-91.069-59.184-121.171-265.23-121.171-189.971 0-240.257 18.143-261 104.175-21.418 88.833 2.632 182.261 62.281 251.411 52.551 60.922 122.93 106.411 198.719 106.411 83.68 0 157.272-55.456 208.678-125.909 45.211-61.961 65.905-138.745 56.552-214.917zM511.5 502.5c-70.692 0-128 57.308-128 128s57.308 128 128 128 128-57.308 128-128-57.308-128-128-128z m-256-32c-53.019 0-96 42.981-96 96s42.981 96 96 96 96-42.981 96-96-42.981-96-96-96z m71.258-36.116c-43.755-29.569-78.595-75.161-103.057-125.805-24.877-51.505-33.795-108.594-26.258-163.788-80.212 4.352-105.251 21.009-116.753 68.837-14.381 59.799 1.767 122.691 41.818 169.24 35.285 41.01 82.541 71.632 133.429 71.632 25.22 0 49.067-7.538 70.821-20.116z"  horiz-adv-x="1024" />

    
    <glyph glyph-name="weixiu" unicode="&#58940;" d="M1024 663.272727v-23.272727c0-9.309091 0-13.963636-4.654545-23.272727-4.654545-13.963636-4.654545-27.927273-9.309091-41.890909-4.654545-13.963636-13.963636-27.927273-18.618182-41.890909-9.309091-18.618182-23.272727-32.581818-37.236364-46.545455-9.309091-4.654545-13.963636-13.963636-23.272727-18.618182-18.618182-13.963636-32.581818-23.272727-55.854546-32.581818-13.963636-4.654545-23.272727-9.309091-37.236363-9.309091-13.963636-4.654545-23.272727-4.654545-37.236364-4.654545h-37.236363c-9.309091 0-13.963636-4.654545-18.618182-9.309091l-107.054546-107.054546L251.345455-81.454545l-9.309091-9.309091c-9.309091-9.309091-18.618182-13.963636-32.581819-23.272728l-41.890909-13.963636h-46.545454l-41.890909 13.963636c-18.618182 9.309091-32.581818 23.272727-41.890909 37.236364-9.309091 13.963636-18.618182 32.581818-23.272728 46.545455-13.963636 18.618182-13.963636 32.581818-13.963636 46.545454 0 9.309091 0 13.963636 4.654545 23.272727l13.963637 41.890909c4.654545 9.309091 13.963636 23.272727 23.272727 32.581819 162.909091 162.909091 330.472727 325.818182 493.381818 488.727272l4.654546 4.654546c4.654545 4.654545 9.309091 13.963636 9.309091 23.272727s0 18.618182-4.654546 27.927273v23.272727c0 9.309091 0 23.272727 4.654546 32.581818 4.654545 23.272727 13.963636 41.890909 23.272727 60.509091s23.272727 37.236364 37.236364 51.2c9.309091 9.309091 13.963636 13.963636 23.272727 18.618182 9.309091 4.654545 18.618182 13.963636 27.927273 18.618182 13.963636 9.309091 27.927273 13.963636 41.890909 18.618182 9.309091 4.654545 23.272727 9.309091 37.236363 9.309091 9.309091 4.654545 23.272727 4.654545 32.581818 4.654545 13.963636 0 27.927273 0 41.89091-4.654545 9.309091 0 13.963636-4.654545 18.618181-9.309091 9.309091-9.309091 9.309091-23.272727 4.654546-32.581819-4.654545-9.309091-9.309091-18.618182-13.963637-23.272727l-41.890909-41.890909-41.890909-41.890909-18.618182-18.618182c-4.654545-9.309091-9.309091-23.272727-4.654545-37.236363 4.654545-13.963636 9.309091-23.272727 18.618182-32.581819 18.618182-18.618182 37.236364-37.236364 55.854545-51.2 4.654545-4.654545 13.963636-9.309091 18.618182-13.963636 9.309091-4.654545 18.618182-4.654545 27.927273-4.654545 13.963636 0 23.272727 9.309091 32.581818 18.618181 18.618182 18.618182 37.236364 32.581818 51.2 51.2l41.890909 41.890909c13.963636 9.309091 23.272727 13.963636 32.581818 9.309091 13.963636-4.654545 23.272727-9.309091 23.272728-23.272727 4.654545-4.654545 4.654545-9.309091 4.654545-18.618182zM134.981818 81.454545c-41.890909 0-69.818182-32.581818-74.472727-65.163636-4.654545-46.545455 32.581818-79.127273 69.818182-79.127273 41.890909 0 74.472727 32.581818 74.472727 69.818182 4.654545 37.236364-27.927273 74.472727-69.818182 74.472727zM330.472727 481.745455c-9.309091-9.309091-13.963636-18.618182-23.272727-23.272728l-13.963636-13.963636h-4.654546c-4.654545 9.309091-13.963636 13.963636-23.272727 18.618182l-232.727273 232.727272c-4.654545 9.309091-13.963636 18.618182-18.618182 27.927273-4.654545 9.309091-9.309091 23.272727-13.963636 37.236364v9.309091 23.272727 4.654545c0 9.309091 4.654545 18.618182 9.309091 27.927273 4.654545 9.309091 13.963636 23.272727 18.618182 32.581818 9.309091 9.309091 18.618182 13.963636 32.581818 23.272728 9.309091 4.654545 23.272727 9.309091 32.581818 13.963636h32.581818c4.654545 0 9.309091 0 13.963637-4.654545 4.654545 0 13.963636-4.654545 18.618181-4.654546 13.963636-4.654545 27.927273-13.963636 41.89091-27.927273l18.618181-18.618181 18.618182-18.618182c18.618182-18.618182 37.236364-32.581818 51.2-51.2l41.890909-41.890909 27.927273-27.927273c9.309091-9.309091 18.618182-18.618182 23.272727-27.927273l23.272728-23.272727c13.963636-9.309091 23.272727-23.272727 37.236363-32.581818 4.654545-4.654545 9.309091-9.309091 9.309091-13.963637-9.309091-4.654545-46.545455-46.545455-121.018182-121.018181zM619.054545 216.436364l60.509091 60.509091h4.654546l23.272727-23.272728 93.090909-93.090909 27.927273-27.927273c4.654545-4.654545 13.963636-9.309091 18.618182-13.963636 4.654545 0 9.309091 0 13.963636-4.654545 13.963636 0 23.272727-4.654545 32.581818-9.309091 9.309091-4.654545 18.618182-13.963636 27.927273-23.272728 4.654545-4.654545 9.309091-13.963636 13.963636-18.618181 13.963636-18.618182 23.272727-32.581818 32.581819-51.2 13.963636-18.618182 23.272727-37.236364 37.236363-60.509091 4.654545-9.309091 9.309091-13.963636 13.963637-23.272728 4.654545-13.963636 9.309091-23.272727 0-37.236363-4.654545-9.309091-13.963636-13.963636-23.272728-18.618182h-13.963636c-9.309091 0-18.618182 9.309091-27.927273 13.963636-4.654545 4.654545-13.963636 9.309091-18.618182 9.309091-9.309091 4.654545-18.618182 13.963636-27.927272 18.618182-9.309091 9.309091-23.272727 13.963636-32.581819 23.272727-9.309091 9.309091-23.272727 13.963636-32.581818 23.272728-9.309091 9.309091-18.618182 13.963636-27.927272 23.272727-13.963636 13.963636-23.272727 32.581818-27.927273 51.2 0 4.654545-4.654545 13.963636-4.654546 18.618182 0 4.654545-4.654545 9.309091-9.309091 13.963636-51.2 51.2-102.4 97.745455-153.6 148.945455z"  horiz-adv-x="1024" />

    
    <glyph glyph-name="yiliao" unicode="&#58956;" d="M832-32H192c-54.4 0-96 41.6-96 96V544h832v-480c0-54.4-41.6-96-96-96z m-160 352h-96v96h-128v-96h-96v-128h96v-96h128v96h96v128zM96 704c0 54.4 41.6 96 96 96h640c54.4 0 96-41.6 96-96v-96H96V704z"  horiz-adv-x="1024" />

    
    <glyph glyph-name="baofei" unicode="&#58891;" d="M671.901538 697.422769H352.216615V756.381538c0 32.452923 26.663385 58.958769 59.431385 58.95877h200.704c32.768 0 59.470769-26.387692 59.470769-58.95877v-58.958769z m-1.96923-572.809846a32.531692 32.531692 0 0 0-65.063385 0v340.401231a32.531692 32.531692 0 0 0 65.063385 0v-340.401231z m-250.801231 0a32.531692 32.531692 0 0 0-65.024 0v340.401231a32.571077 32.571077 0 0 0 65.024 0v-340.401231zM963.387077 697.422769h-209.92V756.381538C753.427692 833.378462 690.136615 896 612.273231 896H411.687385C333.824 896 270.454154 833.378462 270.454154 756.381538v-58.958769H60.573538A40.684308 40.684308 0 0 1 19.692308 657.092923 40.526769 40.526769 0 0 1 60.573538 616.763077h59.392v-605.144615C119.965538-65.378462 183.374769-128 261.277538-128h501.523693c77.863385 0 141.193846 62.621538 141.193846 139.618462V616.763077h59.431385A40.684308 40.684308 0 0 1 1004.307692 657.092923a40.526769 40.526769 0 0 1-40.88123 40.329846h-0.039385z"  horiz-adv-x="1024" />

    
    <glyph glyph-name="-addressbookdirectoryphonephonebookt" unicode="&#59020;" d="M341.333333 725.333333h341.333334v-213.333333h85.333333V810.666667H85.333333v-768h389.546667v85.333333H341.333333V725.333333zM832 270.08A131.84 131.84 0 0 1 853.333333 341.333333a128 128 0 0 1-256 0 131.84 131.84 0 0 1 21.333334-71.253333A213.333333 213.333333 0 0 1 512 85.333333v-128h426.666667v128a213.333333 213.333333 0 0 1-106.666667 184.746667z"  horiz-adv-x="1024" />

    
    <glyph glyph-name="lingqu" unicode="&#58929;" d="M15.640869 69.485714c-21.942857 29.257143-21.942857 80.457143 7.314285 102.4 58.514286 58.514286 168.228571 146.285714 234.057143 146.285715 102.4 0 453.485714 0 475.428572-29.257143 21.942857-21.942857 0-102.4-95.085715-109.714286-73.142857-7.314286-160.914286-7.314286-204.8-7.314286-7.314286 0-14.628571-14.628571 0-21.942857 29.257143-21.942857 102.4-58.514286 190.171429-58.514286 73.142857 0 146.285714 43.885714 197.485714 102.4 43.885714 51.2 117.028571 117.028571 146.285714 117.028572 21.942857 0 36.571429-7.314286 43.885715-7.314286 14.628571 0 14.628571-14.628571 14.628571-21.942857-36.571429-58.514286-175.542857-270.628571-329.142857-329.142857-131.657143-43.885714-270.628571-29.257143-343.771429-21.942857-29.257143 7.314286-58.514286 0-80.457142-21.942857l-29.257143-21.942858c-21.942857-21.942857-51.2-14.628571-73.142857 7.314286L15.640869 69.485714zM747.06944 896H278.955154c-29.257143 0-58.514286-29.257143-58.514285-65.828571v-409.6c0-36.571429 29.257143-65.828571 58.514285-65.828572h468.114286c29.257143 0 58.514286 29.257143 58.514286 65.828572V830.171429c0 36.571429-29.257143 65.828571-58.514286 65.828571z m-51.2-438.857143h-73.142857c-21.942857 0-36.571429 14.628571-36.571429 36.571429s14.628571 36.571429 36.571429 36.571428h73.142857c21.942857 0 36.571429-14.628571 36.571429-36.571428s-14.628571-36.571429-36.571429-36.571429z m21.942857 117.028572H308.212297c-14.628571 0-29.257143 14.628571-29.257143 29.257142s14.628571 29.257143 29.257143 29.257143h409.6c14.628571 0 29.257143-14.628571 29.257143-29.257143s-14.628571-29.257143-29.257143-29.257142z m0 131.657142H308.212297c-14.628571 0-29.257143 7.314286-29.257143 29.257143 0 14.628571 14.628571 29.257143 29.257143 29.257143h409.6c14.628571 0 29.257143-14.628571 29.257143-29.257143 0-21.942857-14.628571-29.257143-29.257143-29.257143z"  horiz-adv-x="1025" />

    
    <glyph glyph-name="wupin" unicode="&#59050;" d="M1026.071814 543.482047V-27.981395c0-14.288372-2.929116-26.86214-8.787349-37.578419-5.858233-10.716279-12.359442-19.717953-19.503628-26.862139-10.430512-10.430512-21.003907-17.717581-31.720186-22.004094a88.826047 88.826047 0 0 0-32.720372-6.358325H105.043349c-25.36186 0.642977-45.937116 9.430326-61.511442 26.362046a88.84986 88.84986 0 0 0-24.433116 59.582512V543.482047L111.901767 829.67814c0 1.92893 7.501395 10.287628 22.432745 24.933209 15.002791 14.645581 38.435721 22.932837 70.29879 24.933209h635.832558c3.286326 1.285953 17.074605-2.786233 41.507721-12.216558 24.433116-9.430326 41.507721-31.434419 51.295256-65.940837l92.802977-257.905116z m-121.093954 71.298976l-57.653581 171.889117H190.987907l-50.795163-171.889117h764.785116z m-190.964093-430.294325c12.716651 12.716651 19.074977 29.93414 19.074977 51.795349 0 21.789767-6.358326 39.078698-19.074977 51.795348-12.716651 12.716651-30.148465 19.360744-52.224 20.003721H376.59386c-22.146977-0.642977-39.578791-7.358512-52.224-20.003721-12.645209-12.645209-19.074977-29.93414-19.074976-51.795348 0-21.789767 6.358326-39.078698 19.074976-51.795349 12.716651-12.716651 30.077023-19.074977 52.224-19.074977H661.789767c22.075535 0.071442 39.507349 6.358326 52.224 19.074977z"  horiz-adv-x="1047" />

    
    <glyph glyph-name="tiaobodan" unicode="&#59086;" d="M356.627692 895.684923h287.074462c46.158769 0 69.238154-23.079385 69.238154-69.238154 0-46.158769-23.079385-69.198769-69.238154-69.198769h-287.113846c-46.119385 0-69.198769 23.04-69.19877 69.198769S310.468923 895.684923 356.627692 895.684923zM861.538462 826.446769a81.526154 81.526154 0 0 0 80.344615-83.062154v-755.081846a84.361846 84.361846 0 0 0-81.250462-84.007384H139.697231A80.738462 80.738462 0 0 0 60.258462-12.603077V742.478769a81.526154 81.526154 0 0 0 80.344615 83.062154h62.739692a128.236308 128.236308 0 0 1 129.220923-128.315077h338.786462a128.236308 128.236308 0 0 1 128.315077 129.220923h61.833846z m-215.04-531.574154H370.294154c-19.534769 0-35.564308-17.526154-35.564308-38.83323 0-21.307077 16.029538-38.793846 35.564308-38.793847h194.914461l-39.384615-43.008a40.172308 40.172308 0 0 1-9.058462-37.29723c3.111385-13.312 12.878769-23.985231 25.088-27.411693 12.209231-3.426462 25.442462 0.393846 34.146462 9.924923l93.459692 101.96677a38.281846 38.281846 0 0 1 15.36 15.202461c5.907692 12.209231 5.907692 27.017846-0.393846 38.833231a36.076308 36.076308 0 0 1-22.646154 18.274462c-0.354462 0-0.708923 0.393846-1.378461 0.748307a34.461538 34.461538 0 0 1-13.981539 0.393846zM447.881846 529.644308L354.461538 427.598769a35.485538 35.485538 0 0 1-14.966153-15.241846c-6.301538-11.815385-6.301538-26.663385 0-38.872615 5.553231-10.24 15.36-17.132308 26.151384-18.628923 1.378462-0.393846 2.441846-0.393846 3.820308-0.393847h284.199385c19.534769 0 35.564308 17.526154 35.564307 38.833231 0 21.346462-15.675077 38.478769-35.564307 38.478769h-194.953847l39.424 43.047385c9.058462 9.885538 12.918154 23.985231 9.767385 37.691077a37.297231 37.297231 0 0 1-25.442462 27.805538 33.476923 33.476923 0 0 1-34.540307-10.633846z"  horiz-adv-x="1024" />

    
    <glyph glyph-name="banji" unicode="&#58893;" d="M85.265067 642.8672h852.514133c46.830933 0 85.1968-37.819733 85.1968-83.968v-545.9968c0-46.216533-38.365867-83.968-85.1968-83.968H85.265067A84.855467 84.855467 0 0 0 0 12.834133V558.762667c0 46.216533 38.365867 83.968 85.265067 83.968zM1022.976 254.3616v-241.4592c0-46.216533-38.365867-83.968-85.1968-83.968H664.917333c-4.232533 16.725333-4.232533 33.518933-4.232533 52.4288 0 157.4912 127.863467 283.511467 287.744 283.511467 25.531733 0 51.131733-4.232533 74.5472-10.513067zM63.965867 894.839467h895.112533c36.181333 0 63.8976-27.306667 63.8976-63.010134a62.327467 62.327467 0 0 0-63.8976-62.941866H63.965867C27.716267 768.887467 0 796.194133 0 831.829333 0 867.5328 27.716267 894.839467 63.965867 894.839467zM300.305067 355.5328h394.922666c39.5264 0 72.772267-32.494933 72.772267-71.0656 0-38.638933-33.245867-71.133867-72.772267-71.133867H300.373333c-39.5264 0-72.772267 32.494933-72.772266 71.133867 0 38.570667 33.245867 71.0656 72.772266 71.0656zM199.133867 583.133867h85.333333V839.133867h-85.333333v-256z m512 0h85.333333V839.133867h-85.333333v-256z"  horiz-adv-x="1024" />

    
    <glyph glyph-name="canting-tianchong" unicode="&#58984;" d="M108.544 187.904h806.912c15.872 0 29.184 5.632 40.448 16.896s16.896 25.088 16.896 40.96-5.632 29.696-16.896 40.96c-11.264 11.264-24.576 16.896-40.448 16.896h-5.12c-10.752 77.824-42.496 146.432-94.208 206.336-51.712 59.904-115.2 100.352-190.464 122.368v1.024c1.536 6.656 2.048 11.776 2.048 15.36 0 32.256-11.264 59.392-33.792 81.408-22.528 22.016-49.664 33.28-81.92 33.28s-59.392-11.264-81.408-33.28c-22.016-22.016-33.28-49.152-33.28-81.408 0-3.584 0.512-8.704 1.024-16.384-75.264-22.016-138.752-62.464-190.464-122.368-51.712-59.392-82.944-128.512-94.208-206.336h-5.12c-7.68 0-14.848-1.536-22.016-4.608-7.168-3.072-13.312-7.168-18.432-12.288s-9.216-11.264-12.288-18.432-4.608-14.848-4.608-23.04c0-15.872 5.632-29.184 16.896-40.448 11.264-11.264 24.576-16.896 40.448-16.896zM512 706.048c15.872 0 29.184-5.632 40.448-16.896s16.896-24.576 16.896-40.448v-3.072l-1.024-1.024c-9.728 1.536-18.944 2.56-28.672 3.072-9.728 0.512-18.944 1.024-27.648 1.024s-17.92-0.512-27.648-1.024c-9.728-0.512-18.944-1.536-28.672-3.072l-1.024 1.024v3.072c0 15.872 5.632 29.184 16.896 40.448 11.264 11.264 24.576 16.896 40.448 16.896zM269.312 397.824c18.432 30.208 41.984 55.808 70.144 77.824 28.16 22.016 59.904 37.376 94.72 47.104 1.536 0.512 2.56 1.024 4.096 1.024 2.048 0.512 3.584 1.024 5.12 1.024 8.192 0 15.36-3.072 20.992-8.704 5.632-5.632 8.704-12.8 8.704-20.992 0-4.608-1.024-9.216-3.072-13.312s-5.12-7.68-8.704-10.24-7.68-4.608-11.776-5.12c-18.432-5.632-35.84-12.8-51.712-22.016-15.872-9.216-30.72-19.968-44.032-32.768s-24.576-26.624-34.304-41.472c-1.536-3.584-3.584-6.656-6.144-9.216s-5.632-4.608-9.216-6.144c-3.584-1.536-7.168-2.048-11.264-2.048-8.192 0-14.848 2.56-20.48 8.192s-8.192 12.288-8.192 20.48c0 6.144 1.536 11.776 5.12 16.384zM915.456 130.56H108.544c-15.872 0-29.184-5.632-40.448-16.896S51.2 88.576 51.2 72.704s5.632-29.696 16.896-40.96 24.576-16.896 40.448-16.896h806.912c15.872 0 29.184 5.632 40.448 16.896s16.896 25.088 16.896 40.96-5.632 29.696-16.896 40.96c-11.264 11.264-24.576 16.896-40.448 16.896z"  horiz-adv-x="1024" />

    
    <glyph glyph-name="anbao" unicode="&#59358;" d="M888 742.4v-443.2c0-28.8-6.4-51.2-17.6-78.4-11.2-28.8-28.8-51.2-51.2-78.4-22.4-22.4-44.8-51.2-67.2-67.2-28.8-22.4-51.2-40-78.4-56s-51.2-33.6-78.4-44.8c-28.8-11.2-44.8-17.6-67.2-22.4h-16c-17.6 6.4-44.8 11.2-67.2 22.4-28.8 11.2-51.2 28.8-78.4 44.8-28.8 17.6-56 40-84.8 56-28.8 22.4-51.2 44.8-73.6 67.2s-40 51.2-51.2 78.4c-11.2 28.8-22.4 51.2-22.4 78.4V742.4l33.6 6.4L512 816l353.6-67.2 22.4-6.4zM512 753.6L209.6 704v-280H512V753.6z m302.4-329.6H512v-398.4c17.6 6.4 40 11.2 62.4 22.4l67.2 33.6c22.4 11.2 44.8 28.8 62.4 44.8 22.4 17.6 40 33.6 56 51.2 17.6 17.6 28.8 40 40 56 11.2 22.4 17.6 40 17.6 62.4l-3.2 128z"  horiz-adv-x="1024" />

    
    <glyph glyph-name="zhuanye" unicode="&#58894;" d="M910.516706 896c29.394824 0 53.248-22.287059 53.248-49.694118v-765.168941H242.748235a1.746824 1.746824 0 0 1-1.807059-1.505882V-1.505882c0-0.843294 0.722824-1.566118 1.626353-1.686589H963.764706v-34.635294c0-27.407059-23.853176-49.633882-53.248-49.633882H113.483294c-29.394824 0-53.248 22.226824-53.248 49.633882V846.305882C60.235294 873.773176 84.088471 896 113.483294 896h157.214118v-393.577412c0-2.409412 0.602353-4.818824 1.746823-7.047529l0.240941-0.481883c4.397176-8.131765 15.058824-11.444706 23.792942-7.228235l109.025882 51.501177a37.767529 37.767529 0 0 0 32.045176 0l109.025883-51.561412c2.469647-1.144471 5.240471-1.807059 8.011294-1.807059 9.758118 0 17.709176 7.469176 17.709176 16.624941V896h338.221177z"  horiz-adv-x="1024" />

    
    <glyph glyph-name="jieyong" unicode="&#58903;" d="M951.8 358.6c-105.6 28.4-194 83.6-233.8 102.2-51.6 24-81.4 4.6-201-23.2-119.6-27.8-171.2-30.8-171.2-30.8-17.2-30.4 5-79.6 44.6-92.6s185.4 1.6 223.4 7.8c18.2 3 20.6-20-1-42.8-23.2-24.4-82.2-45-126.6-58.8-64.2-20-155.2 9-155.2 9S204.6 302.6 122.6 322c-82 19.6-74.4-54-74.4-54s153.2-104.4 201-131.2c47.8-26.8 121-97.8 186.2-92.6 65 5.2 298.6 68.8 350 61.8 22.8-3.2 58.4-12.8 91.8-21.2 1-0.2 1.8-0.4 2.8-0.6 2.8-1 5.6-1.8 8.6-1.8 10 0 18.4 5.8 23.4 14 1.2 2.2 2.4 4.8 3.4 7.4 24.2 53.4 48.8 159.8 60.4 214.2 3.6 17.8-6.8 36-24 40.6zM174.2 601.6h386.8c32.4 0 58.6 27.4 58.6 61.4s-26.2 61.4-58.6 61.4H174.2c-32.4 0-58.6-27.4-58.6-61.4s26.4-61.4 58.6-61.4z"  horiz-adv-x="1024" />

    
    <glyph glyph-name="cangku" unicode="&#59562;" d="M420.352 841.728c26.624 27.136 62.464 40.448 97.792 38.912 32.256-0.512 64-13.824 88.064-39.424l7.168-7.68 388.096-405.504c21.504-22.528 6.144-59.392-24.576-59.904h-77.824v-351.744c0-71.68-56.832-129.536-128-130.56H261.12c-71.68 0-130.048 58.368-130.048 130.56v351.744H39.936c-30.72 0-46.592 37.376-25.6 59.392l0.512 0.512 405.504 413.696zM440.32 272.896H302.08c-27.136 0-48.64-22.016-48.64-49.152v-138.752c0-27.136 22.016-49.152 48.64-49.152h138.24c27.136 0 48.64 22.016 48.64 49.152v138.752c0.512 27.136-21.504 49.152-48.64 49.152z m287.232 0h-138.24c-27.136 0-48.64-22.016-48.64-49.152v-138.752c0-27.136 22.016-49.152 48.64-49.152h138.24c27.136 0 48.64 22.016 48.64 49.152v138.752c0 27.136-21.504 49.152-48.64 49.152zM440.32 564.224H302.08c-27.136 0-48.64-22.016-48.64-49.152v-138.752c0-27.136 22.016-49.152 48.64-49.152h138.24c27.136 0 48.64 22.016 48.64 49.152V515.072c0.512 27.136-21.504 49.152-48.64 49.152z"  horiz-adv-x="1024" />

    
    <glyph glyph-name="guanli1" unicode="&#58908;" d="M930.908 420.41c0 7.18-2.74 14.359-8.223 19.84a27.914 27.914 0 0 1-19.8 8.223h-42.83c-17.756 0-36.533 13.848-41.81 30.785l-22.214 53.959c-8.346 15.606-4.91 38.638 7.568 51.177l30.395 30.355c5.073 5.073 8.223 12.088 8.223 19.84 0 7.752-3.109 14.768-8.223 19.861l-51.587 51.505c-5.073 5.073-12.068 8.202-19.8 8.202a28.087 28.087 0 0 1-19.84-8.202l-30.395-30.396c-12.477-12.518-35.59-15.955-51.219-7.568l-53.917 22.194c-16.855 5.236-30.764 24.054-30.764 41.788v42.892a27.96 27.96 0 0 1-8.224 19.82 27.91 27.91 0 0 1-19.8 8.224H475.59c-7.2 0-14.358-2.741-19.84-8.223a27.96 27.96 0 0 1-8.223-19.82v-42.894c0-17.734-13.786-36.552-30.722-41.788l-53.96-22.194c-15.667-8.387-38.658-4.99-51.136 7.568l-30.518 30.375c-5.073 5.073-12.109 8.182-19.84 8.182-7.732 0-14.727-3.15-19.8-8.202l-51.464-51.464c-5.072-5.072-8.182-12.068-8.223-19.82 0-7.732 3.15-14.748 8.223-19.82l30.355-30.417c12.559-12.56 15.996-35.57 7.568-51.177l-22.214-54c-5.236-16.936-24.013-30.784-41.767-30.784l-42.873 0.04c-7.2 0-14.36-2.74-19.84-8.222a27.974 27.974 0 0 1-8.224-19.84v-72.84c0-7.179 2.741-14.359 8.223-19.84a27.997 27.997 0 0 1 19.84-8.202h42.874c17.754-0.041 36.49-13.888 41.727-30.785l22.255-53.959c8.346-15.648 4.95-38.741-7.568-51.218l-30.436-30.354a27.994 27.994 0 0 1-8.223-19.862c0-7.731 3.15-14.768 8.223-19.84l51.586-51.505c5.073-5.074 12.068-8.202 19.8-8.202a27.994 27.994 0 0 1 19.841 8.202l30.436 30.375c12.477 12.497 35.468 15.933 51.054 7.466l54.082-22.193c16.936-5.257 30.722-24.034 30.722-41.789v-42.73c0-7.179 2.741-14.358 8.223-19.84a28.002 28.002 0 0 1 19.84-8.202h72.819a28 28 0 0 1 19.84 8.202 27.974 27.974 0 0 1 8.224 19.84v42.73c0 17.755 13.909 36.532 30.764 41.789l54 22.193c15.626 8.468 38.699 5.032 51.258-7.466l30.232-30.354c5.072-5.094 12.068-8.264 19.84-8.264a27.832 27.832 0 0 1 19.841 8.202l51.587 51.546c5.114 5.092 8.223 12.109 8.223 19.861 0 7.753-3.15 14.768-8.223 19.841L803.6 183.565c-12.477 12.477-15.914 35.57-7.568 51.218l22.214 53.959c5.277 16.896 24.136 30.744 41.81 30.744h42.83c7.159 0 14.319 2.74 19.8 8.223a27.969 27.969 0 0 1 8.223 19.84V420.41z m-257.686-36.368c0-88.998-72.122-161.079-161.099-161.079-89.018 0-161.14 72.08-161.14 161.079 0 88.976 72.122 161.1 161.14 161.1 88.977 0 161.1-72.124 161.1-161.1z"  horiz-adv-x="1024" />

    
    <glyph glyph-name="shenqing" unicode="&#59148;" d="M502.1-20.1V-128h108l312.4 315.6-107.9 108-312.5-315.7zM729.2 896H159.6C76.8 896 9.6 828.9 9.6 746v-724c0-82.7 67.3-150 150-150h207.3V6.4l512.5 524.3V746C879.2 828.9 812.1 896 729.2 896zM462.1 240.6H276c-34.1 0-61.7 27.6-61.7 61.7s27.6 61.8 61.7 61.8h186.1c34.1 0 61.8-27.6 61.8-61.8-0.1-34-27.7-61.7-61.8-61.7z m125.1 248.3H276c-34.1 0-61.7 27.6-61.7 61.8 0 34.1 27.6 61.7 61.7 61.7h311.3c34.1 0 61.7-27.6 61.7-61.7 0-34.2-27.7-61.8-61.8-61.8z m352.6-114c-5.3 5.5-12.4 8.4-20 8.4-7.5 0-14.8-3.1-20-8.4l-51.3-51.2 107.9-107.9 48.1 54.3c5.5 5.3 8.4 12.5 8.4 20s-3.1 14.7-8.4 20l-64.7 64.8z m0 0"  horiz-adv-x="1024" />

    
    <glyph glyph-name="jiangbei" unicode="&#58890;" d="M637.199748 101.695452a26.631128 26.631128 0 0 1-9.523714 14.103125 26.442599 26.442599 0 0 1-16.071116 5.429612h-56.403987v96.306282a272.86111 272.86111 0 0 0-21.700203-2.765891c-7.319759-0.632482-14.712497-0.963318-22.172132-0.963318-7.473014 0-14.875483 0.330837-22.195241 0.963318a272.451213 272.451213 0 0 0-21.703852 2.765891v-96.306282h-56.363848a26.503415 26.503415 0 0 1-16.084496-5.429612 26.616532 26.616532 0 0 1-9.5152-14.103125l-10.012672-36.108622-10.013888-36.11592a26.921826 26.921826 0 0 1-0.482875-12.166759 26.710188 26.710188 0 0 1 4.926059-11.109784 26.801411 26.801411 0 0 1 9.365594-7.76128 26.342862 26.342862 0 0 1 11.807947-2.789h240.769963a26.404894 26.404894 0 0 1 18.787138 7.818446 26.64694 26.64694 0 0 1 7.779525 18.871064 27.099407 27.099407 0 0 1-0.527879 5.355417 26.059461 26.059461 0 0 1-1.522822 4.985658l-9.567501 34.509174-9.5748 34.511606zM781.399489 673.986768a84.343864 84.343864 0 0 1-11.100053 2.185711 85.937232 85.937232 0 0 1-16.283971 0.558286 112.800675 112.800675 0 0 1-5.120669-0.443953v71.179731a25.113172 25.113172 0 0 1-7.324624 17.764221c-4.521028 4.545354-10.768001 7.357465-17.674214 7.357465h-425.100666a24.90275 24.90275 0 0 1-17.697324-7.357465 25.110739 25.110739 0 0 1-7.328274-17.764221v-71.179731a107.635002 107.635002 0 0 1-5.125534 0.443953 86.722969 86.722969 0 0 1-16.269375-0.553421c-3.717046-0.476794-7.419497-1.204148-11.096404-2.185711-29.174434-7.806283-51.519282-30.151131-64.082557-59.983589-12.568141-29.82516-15.338897-67.131849-5.348119-104.848434 8.750141-32.969324 25.807685-60.793652 47.104073-80.384772 21.290306-19.587471 46.835268-30.928354 72.556595-30.928354 1.303885 0 2.607771 0.063248 3.916521 0.159336 1.29902 0.099737 2.612636 0.22745 3.921386 0.358812a223.290359 223.290359 0 0 1 2.94104-6.156966c1.008322-2.021509 2.043402-4.034503 3.102809-6.025604 0.195826-0.367326 0.394085-0.744382 0.586262-1.112925 0.195826-0.362461 0.389219-0.727354 0.588695-1.07157a267.143232 267.143232 0 0 1 4.816591-8.533637 239.052532 239.052532 0 0 1 5.115804-8.266049c0.190961-0.307727 0.390436-0.602074 0.586262-0.91345 0.200691-0.308943 0.395301-0.611804 0.600857-0.921963a288.187844 288.187844 0 0 1 5.638818-8.251453 245.668047 245.668047 0 0 1 5.90154-8.027653c0.049869-0.074195 0.109468-0.126496 0.162986-0.205556 0.059599-0.066897 0.119198-0.139876 0.177581-0.20434a248.947221 248.947221 0 0 1 13.352661-15.855829 252.427087 252.427087 0 0 1 14.526402-14.607895c0.099737-0.086358 0.186096-0.169067 0.267588-0.255425 0.086358-0.091223 0.164202-0.167851 0.25056-0.240829a234.677461 234.677461 0 0 1 7.582482-6.683629 267.617594 267.617594 0 0 1 7.811149-6.347927c0.136227-0.094872 0.259074-0.19461 0.380706-0.279751 0.119198-0.090007 0.24083-0.186096 0.363677-0.280968a233.147342 233.147342 0 0 1 34.708648-22.219568 224.61857 224.61857 0 0 1 38.152025-15.666085c0.041355-0.018245 0.081493-0.041355 0.122847-0.049868 0.041355-0.013379 0.086358-0.02311 0.131361-0.03649 3.31688-0.998591 6.652004-1.940016 10.013888-2.793866 3.361883-0.862364 6.74566-1.644452 10.159845-2.354778h0.030408c3.5346-0.717623 7.102039-1.353754 10.687724-1.90231 3.580819-0.550989 7.188398-1.018052 10.819086-1.382946 0.076628-0.025543 0.167851-0.025543 0.252993-0.029191 0.087574-0.010947 0.164202-0.020677 0.245694-0.020677 3.603929-0.362461 7.238266-0.644645 10.892065-0.842904 3.652582-0.187312 7.327057-0.290698 11.007613-0.290698 3.690287 0 7.347734 0.103386 10.986937 0.290698 3.634337 0.198259 7.251646 0.481659 10.849493 0.842904 0.091223 0 0.18123 0.00973 0.27367 0.020677 0.090007 0.003649 0.186096 0.003649 0.280968 0.029191 3.617309 0.364893 7.216373 0.831957 10.78138 1.382946 3.575954 0.548556 7.116635 1.185903 10.636639 1.90231h0.122848a227.077951 227.077951 0 0 1 20.133594 5.138914c0.035273 0.014596 0.085142 0.024326 0.136227 0.041354 0.045004 0.018245 0.104603 0.02311 0.167851 0.041355 13.212786 4.046666 25.962157 9.318158 38.134996 15.664868a233.881994 233.881994 0 0 1 34.708649 22.220785c0.122847 0.083925 0.244478 0.184879 0.363677 0.279751 0.122847 0.094872 0.235964 0.189745 0.358811 0.280968a229.876682 229.876682 0 0 1 7.841557 6.347927 245.719132 245.719132 0 0 1 7.578833 6.679979c0.076628 0.081493 0.162986 0.153255 0.244479 0.24083 0.086358 0.080277 0.169067 0.161769 0.25056 0.248127a247.198166 247.198166 0 0 1 14.561674 14.621274 249.638086 249.638086 0 0 1 13.385502 15.893534c0.054734 0.059599 0.109468 0.116766 0.159336 0.176366 0.049869 0.065681 0.099737 0.127713 0.141092 0.195826a242.630919 242.630919 0 0 1 5.919786 8.036166 276.917507 276.917507 0 0 1 5.643682 8.270914c0.19461 0.295564 0.390436 0.59356 0.594776 0.893989a32.35387 32.35387 0 0 1 0.594776 0.904935 280.335341 280.335341 0 0 1 5.115804 8.290375 262.620988 262.620988 0 0 1 4.831187 8.537287c0.184879 0.346649 0.377056 0.690865 0.568017 1.059406 0.19461 0.355163 0.385571 0.709109 0.581397 1.076436 1.063056 2.00448 2.095704 4.025989 3.108891 6.060877 1.008322 2.036104 1.99475 4.089237 2.948337 6.16548 1.308751-0.131362 2.626015-0.25056 3.934766-0.350298 1.303885-0.096089 2.604122-0.162986 3.893411-0.162985 25.724976 0 51.269938 11.353046 72.569975 30.932003 21.296388 19.582606 38.347851 47.4118 47.080963 80.385988 10.005374 37.706855 7.233401 75.009894-5.329874 104.837487-12.560843 29.830025-34.915421 52.174873-64.080125 59.976292zM212.956581 520.140465c-6.851479 25.84904-5.779909 51.656725 1.375648 72.179539 7.161639 20.519165 20.397534 35.73035 37.885652 40.410714a43.063488 43.063488 0 0 0 5.601112 1.095896 43.419867 43.419867 0 0 0 5.715445 0.362461c1.699186 0 3.398373-0.111901 5.10729-0.304078 1.708917-0.199475 3.416617-0.493822 5.125534-0.85385v-118.50639c0-3.607578 0.091223-7.205426 0.245695-10.776514 0.159337-3.584468 0.380705-7.148259 0.658024-10.69259 0.03284-0.481659 0.059599-0.948723 0.087574-1.435247 0.031624-0.471929 0.063248-0.949939 0.100954-1.435246 0.285833-3.358234 0.63978-6.698224 1.063056-10.01997 0.412329-3.325394 0.893989-6.628895 1.412137-9.922664 0.096089-0.595992 0.195826-1.172524 0.290698-1.753921 0.096089-0.576531 0.195826-1.149414 0.287049-1.725945 0.566801-3.268227 1.189552-6.507263 1.862172-9.724406a258.666762 258.666762 0 0 1 2.199091-9.568718c0.113117-0.490173 0.235964-0.976698 0.367325-1.468087 0.124064-0.496255 0.259074-0.986428 0.385571-1.475385l0.426925-1.637155c0.141092-0.540042 0.285833-1.076435 0.436656-1.621342-15.056713 2.467895-29.955305 11.754429-42.467496 25.634969-12.514623 13.886622-22.641628 32.370899-28.166112 53.237929z m428.236316 48.620813l-35.28518-26.588557-35.291261-26.580043 12.836945-42.073411 12.825999-42.06368a8.013056 8.013056 0 0 0-0.059599-4.88957 7.998461 7.998461 0 0 0-5.132832-5.09391c-0.799116-0.267588-1.617694-0.395301-2.435055-0.395301a8.027652 8.027652 0 0 0-2.358427 0.355163 7.553291 7.553291 0 0 0-2.161384 1.071569l-36.409051 25.148445-36.406619 25.143579-36.39932-25.143579-36.404186-25.148445a7.85372 7.85372 0 0 0-4.635361-1.426732 7.976567 7.976567 0 0 0-7.460851 5.494076 8.019138 8.019138 0 0 0-0.035273 4.888354l12.804105 42.060031 12.80897 42.073411-35.280314 26.586124-35.281531 26.588557a8.051978 8.051978 0 0 0-2.820625 3.994365 8.051978 8.051978 0 0 0 0.008514 4.90295 7.902372 7.902372 0 0 0 2.830355 3.942063 7.888993 7.888993 0 0 0 4.607386 1.58607l44.313856 0.904935 44.312639 0.886691 14.558026 41.568642 14.56289 41.573507a7.887776 7.887776 0 0 0 2.898469 3.871518 7.94251 7.94251 0 0 0 4.612251 1.468087c1.702835 0 3.302284-0.531528 4.614684-1.468087a7.913319 7.913319 0 0 0 2.908199-3.871518l14.558026-41.573507 14.558025-41.568642 44.295611-0.886691 44.295611-0.904935c1.712566-0.036489 3.320529-0.60329 4.625631-1.58607a7.893858 7.893858 0 0 0 2.83522-3.942063 8.134687 8.134687 0 0 0 0-4.90295 7.94251 7.94251 0 0 0-2.814543-4.000446z m168.550286-48.620813c-5.543945-20.868246-15.667301-39.352523-28.179492-53.236713-12.508541-13.886622-27.402269-23.171939-42.478442-25.639834 0.154471 0.531528 0.300429 1.082517 0.445169 1.621343 0.136227 0.531528 0.277319 1.082517 0.413546 1.635938 0.136227 0.495039 0.268805 0.985212 0.395301 1.471736 0.131362 0.485308 0.259074 0.971832 0.377057 1.472952 0.790602 3.162408 1.522821 6.351576 2.190576 9.568718a268.218451 268.218451 0 0 1 1.845143 9.728055c0.109468 0.572882 0.209205 1.149414 0.300429 1.725945 0.094872 0.582613 0.184879 1.154279 0.277319 1.753921 0.527879 3.290121 1.003457 6.59727 1.421867 9.922664 0.418411 3.321745 0.772357 6.661735 1.072787 10.022402 0.040138 0.47801 0.072979 0.95602 0.109468 1.423084 0.031624 0.467063 0.054734 0.936559 0.085141 1.403623 0.278535 3.547979 0.495039 7.119068 0.645861 10.713266 0.149606 3.589334 0.235964 7.188398 0.235965 10.791111v118.506389c1.702835 0.355163 3.425132 0.645861 5.134048 0.855067a45.156759 45.156759 0 0 0 5.125534 0.304077 43.106059 43.106059 0 0 0 11.286149-1.458356c17.496633-4.674283 30.745907-19.891549 37.911195-40.410714 7.155557-20.516733 8.231992-46.325634 1.385379-72.174674z m0 0"  horiz-adv-x="1024" />

    
    <glyph glyph-name="fangjian" unicode="&#58896;" d="M136.757033 790.115009L553.373996 894.838a36.425997 36.425997 0 0 0 45.530996-36.424997v-949.339916a36.425997 36.425997 0 0 0-43.254996-36.425997l-416.616963 77.404993a59.190995 59.190995 0 0 0-47.807996 56.914995V733.200014a59.190995 59.190995 0 0 0 45.531996 56.914995z m560.041951-828.679927h168.467985a66.020994 66.020994 0 0 1 66.020994 66.019994V742.307014a66.020994 66.020994 0 0 1-66.020994 66.021994H696.798984zM448.650006 462.285038c-25.041998 0-47.807996-34.148997-47.807996-77.403993s20.489998-77.403993 47.807996-77.403993 47.808996 34.148997 47.808995 77.403993-22.765998 77.403993-47.808995 77.403993z"  horiz-adv-x="1024" />

    
    <glyph glyph-name="wode-copy" unicode="&#58888;" d="M896.92142891-58.15714247999995h-767.14285782c-15.00000029 0-32.14285752 8.57142862-40.71428525 19.28571415-10.71428555 12.85714248-12.85714248 29.99999971-10.71428555 45 40.71428614 201.42857109 203.57142891 353.57142832 402.85714219 368.57142862 66.42857109 0 139.28571387-8.57142862 210.00000059-38.5714292 21.42857109-8.57142862 27.85714277-12.85714248 40.71428525-19.28571416 115.71428584-66.42857109 195.00000029-177.85714307 220.71428613-310.71428526 4.28571387-15.00000029 0-32.14285752-12.85714336-45-12.85714248-10.71428555-27.85714277-19.28571416-42.85714218-19.28571415zM129.77857109-26.014285839999957c-6.42857168 0-12.85714248 2.14285693-14.99999941 6.42857168v2.14285694c-4.28571387 4.28571387-6.42857168 12.85714248-4.28571475 19.28571415 36.42857138 188.57142862 190.71428555 330.00000029 375.00000029 342.85714278h15.0000003c87.85714307 0 173.57142832-27.85714277 216.42857139-53.57142862 109.28571416-66.42857109 182.14285693-167.14285752 205.71428495-289.28571416 0-6.42857168 0-12.85714248-6.42857079-19.28571416-4.28571387-4.28571387-8.57142862-6.42857168-15.0000003-6.42857168h-771.42857168zM498.34999971 333.98571416000004c85.71428614 0 169.28571445-25.71428584 210.00000058-51.42857168 107.14285722-62.14285722 175.71428613-162.85714278 199.28571416-280.71428555 0-2.14285693 0-6.42857168-4.28571474-10.71428555 0 0-2.14285693-2.14285693-6.4285708-2.14285693h-767.14285782c-2.14285693 0-6.42857168 0-6.4285708 2.14285693l-2.14285781 2.14285694s-2.14285693 4.28571387 0 6.42857168c36.42857138 182.14285693 184.28571386 319.28571387 364.28571474 334.28571416 2.14285693-2.14285693 8.57142862 0 12.85714249 0z m0 23.57142891h-14.99999942c-190.71428555-12.85714248-349.28571445-158.57142891-387.85714277-353.57142921-2.14285693-10.71428555 0-21.42857109 8.57142861-29.9999997 6.42857168-8.57142862 15.00000029-12.85714248 25.71428496-12.85714248h767.14285782c10.71428555 0 19.28571416 4.28571387 25.71428496 12.85714248s10.71428555 17.14285722 8.57142861 29.99999971c-23.57142891 126.42857138-98.57142862 231.42857168-209.99999971 297.85714365-42.85714307 25.71428584-128.57142832 55.71428555-222.85714306 55.71428555z m15.00000029 2.14285693c-124.28571445 0-227.14285693 102.85714248-227.14285693 227.14285693s102.85714248 227.14285693 227.14285693 227.14285693 227.14285693-102.85714248 227.14285693-227.14285693-102.85714248-227.14285693-227.14285693-227.14285693zM513.35 391.84285752c-107.14285722 0-195.00000029 87.85714307-195.00000029 194.99999941s87.85714307 195.00000029 195.00000029 195.00000029 195.00000029-87.85714307 195.00000029-195.00000029-87.85714307-195.00000029-195.00000029-194.99999941zM513.35 771.12857168c100.71428555 0 184.28571386-81.42857138 184.28571386-184.28571475 0-100.71428555-81.42857138-184.28571386-184.28571386-184.28571386s-184.28571386 81.42857138-184.28571386 184.28571386c0 100.71428555 83.57142832 184.28571386 184.28571386 184.28571475z m0 23.57142803c-115.71428584 0-207.85714278-94.28571386-207.85714278-207.85714278 0-115.71428584 94.28571386-207.85714278 207.85714278-207.85714277s207.85714278 94.28571386 207.85714278 207.85714277c0 115.71428584-92.14285693 207.85714278-207.85714278 207.85714278z"  horiz-adv-x="1024" />

    
    <glyph glyph-name="tongzhi" unicode="&#58889;" d="M848.4 160.4l-0.4 0.2c-11.2 7.1-14.3 21.5-8.1 33.1 81.7 152 21.5 324.6-3.5 383.1-5 11.8-0.3 25.4 11.1 31.4l0.5 0.3c12.6 6.6 28.2 1.4 33.9-11.7 28.6-65.8 94.9-255.6 0.8-428.1-6.6-12.2-22.5-15.7-34.3-8.3zM614.8 774.9L335.5 581c-3.3-1.7-7-2.6-10.7-2.6h-184c-27.3 0-49.5-22.2-49.5-49.5v-301.3c0-27.3 22.2-49.5 49.5-49.5h183.1l294.7-189.2c32.8-13.4 68.7 10.7 68.7 46.1V730.4c-0.1 37.2-39.3 61.3-72.5 44.5z"  horiz-adv-x="1024" />

    
    <glyph glyph-name="yusuan" unicode="&#58971;" d="M533.12 520.96c-216.96 0-376.32 64-405.12 151.04C128 756.48 316.16 823.04 533.12 832c226.56 0 405.76-75.52 405.76-160-28.8-75.52-188.16-151.04-405.76-151.04z m0-302.08C316.16 218.88 156.8 294.4 128 369.92V540.16a692.48 692.48 0 0 1 405.12-103.68c179.84 0 320 37.76 405.76 103.68v-170.24c-28.8-75.52-188.16-151.04-405.76-151.04z m0-84.48a738.56 738.56 0 0 1 405.76 104.32v-170.88c0-75.52-188.16-131.84-405.76-131.84S128-7.68 128 67.84v170.24a695.04 695.04 0 0 1 405.12-103.68z m0 0"  horiz-adv-x="1024" />

    
    <glyph glyph-name="renyuan1" unicode="&#58955;" d="M994.546614 62.012597c2.784667-9.295875 4.811741-20.966907 6.40883-34.644538 1.63804-13.309072 2.436584-27.437164 2.436584-41.114795 0.204755-13.104317-0.880446-26.188159-3.194177-39.08772-2.027074-12.080542-5.262202-21.335466-9.295875-27.396213-2.805143-4.033673-10.442503-8.04687-23.751575-12.080543-13.268121-4.033673-29.750895-7.657835-49.059287-10.892963-19.717902-3.624163-41.442403-6.40883-65.193977-9.623483-23.751575-3.255604-47.482674-5.692188-71.602807-7.698786-24.161085-1.986123-47.073164-3.624163-69.616685-5.221252a1104.038711 1104.038711 0 0 0-58.72372-2.027074c-16.933235 0-36.241627 0.81902-58.355162 2.027074-21.744976 1.597089-44.677531 3.194177-68.388155 5.241727-23.751575 1.986123-47.093639 4.422707-70.04667 6.40883a1593.403051 1593.403051 0 0 0-63.555937 8.087821 721.63836 721.63836 0 0 0-48.690728 9.275399c-13.288597 3.214653-21.314991 6.040271-24.980105 8.845414-5.200776 4.852692-9.623483 18.939833-13.22717 42.711884-3.235128 23.77205-2.436584 54.403391 3.194178 91.484513 3.194177 21.744976 12.080542 37.879666 25.758173 48.731679 13.698106 10.892964 30.18088 19.738378 49.079762 26.597669 18.919358 6.859291 38.248225 12.490052 58.355162 17.711303 20.147887 5.262202 37.838715 12.490052 53.09296 22.973506a182.559517 182.559517 0 0 1 27.785247 22.174962c6.429306 6.859291 10.872488 13.677631 14.066665 20.147887 3.214653 6.838815 4.422707 14.107616 4.422707 21.335466 0 7.248325-0.389034 15.704705-1.187578 25.389615-1.597089 13.309072-6.040271 24.18156-14.066666 32.228429a391.327668 391.327668 0 0 1-26.556717 22.973506 49.345944 49.345944 0 0 0-12.490053 17.301794 264.359121 264.359121 0 0 0-9.664433 22.174961c-2.805143 8.067345-5.241727 17.342745-8.067346 27.396213a84.338566 84.338566 0 0 0-12.060066 6.060747 53.707224 53.707224 0 0 0-10.442503 12.080542c-4.013197 5.241727-7.248325 12.899562-10.483454 22.154486a59.030853 59.030853 0 0 0-3.992721 26.986703c0.798544 8.45638 2.395633 15.315671 5.221251 20.946432a66.95487 66.95487 0 0 0 10.852013 18.141289c-0.40951 21.785927 0.40951 43.899462 3.214652 66.074423 3.009898 20.106936 7.166423 40.009118 12.490053 59.624643a183.890424 183.890424 0 0 0 26.925276 57.638519c10.892964 16.114215 22.95303 29.423287 36.651137 39.476756 12.694807 9.72586 26.618144 17.731779 41.442403 23.77205a187.350783 187.350783 0 0 0 42.650456 11.691508 294.028114 294.028114 0 0 0 40.623383 3.214652c34.603587 0 65.193977-7.248325 92.549239-21.335466 26.966227-14.107616 47.073164-29.423287 59.952251-45.537502a186.204155 186.204155 0 0 0 33.006499-61.631241c7.22785-22.563996 12.060067-43.919938 15.663753-63.269281 3.624163-22.973506 4.832217-45.947012 4.033673-68.879566 3.214653-2.866569 6.429306-6.470257 9.275399-10.892964 1.986123-4.033673 4.013197-9.295875 5.610286-15.704705 1.597089-6.470257 2.006599-14.517126 0.40951-23.813001-1.597089-12.080542-4.033673-22.113535-8.067345-29.402811-3.235128-6.265502-7.289276-12.080542-12.060067-17.301794-4.791266-4.832217-10.032993-7.698786-16.093739-9.295875-2.805143-10.053468-5.221251-19.328868-8.026394-27.396212-2.866569-7.596409-6.224551-14.988063-10.073944-22.134011-4.013197-7.268801-8.45638-12.899562-12.879087-16.114215a163.926816 163.926816 0 0 0-14.865209-12.080542 152.747196 152.747196 0 0 1-11.671033-10.483454 42.793785 42.793785 0 0 1-8.456379-12.490052 62.40931 62.40931 0 0 1-5.630762-17.301793 149.839675 149.839675 0 0 1-1.597088-27.027654c0.368559-9.275399 2.395633-18.120813 6.388354-26.577193 4.074624-8.886365 10.503929-17.342745 19.738378-25.41009 9.295875-8.04687 21.744976-15.295195 38.248225-21.335466 14.066665-6.060747 29.750895-11.281998 47.032213-15.704705 17.342745-4.463658 33.825518-9.684909 49.919258-15.704705a175.270241 175.270241 0 0 0 42.650457-23.383016c12.490052-12.121493 21.294515-24.202036 26.945752-39.108196h0.020475zM458.354816 231.631601c-2.006599-4.033673-6.838815-8.45638-14.066665-13.309072-17.793205-10.974866-36.855892-19.758853-56.717122-26.167683a700.159565 700.159565 0 0 1-58.355162-22.174962 168.124293 168.124293 0 0 1-48.690728-32.228429c-13.698106-13.309072-22.523045-31.81892-25.758173-56.389515-1.146628-7.22785-1.965648-14.496651-2.395633-21.785927-0.286657-6.613585-0.81902-13.186219-1.597089-19.738377a16.278019 16.278019 0 0 1-2.027074-3.624163c-0.40951-1.22853-1.22853-2.027074-2.006598-3.624163-26.556718 2.027074-32.63794 4.422707-59.624643 7.248326a1977.298114 1977.298114 0 0 0-74.428426 9.295875 1442.601028 1442.601028 0 0 0-57.536142 10.032992c-15.663754 3.214653-25.328188 6.879766-29.36186 10.073944-6.060747 4.852692-10.462978 18.939833-13.718582 42.711883-3.173702 23.77205-1.965648 54.403391 3.685589 92.283058 3.173702 20.946432 12.039591 37.060647 25.717222 48.342645a155.757093 155.757093 0 0 0 49.489273 26.188158 816.153246 816.153246 0 0 0 58.334686 17.752255 198.714683 198.714683 0 0 1 53.113435 22.13401c12.080542 8.067345 21.335466 15.704705 28.153806 22.174962 6.470257 6.859291 10.892964 13.677631 13.718582 20.946432 2.805143 7.248325 4.013197 14.496651 4.013197 21.765451 0 7.22785-0.40951 15.704705-1.228529 24.161085-1.208054 13.718582-6.040271 24.18156-13.677631 32.22843a495.343184 495.343184 0 0 1-25.737698 23.77205 42.220471 42.220471 0 0 0-13.677631 16.114215 264.625302 264.625302 0 0 0-9.664434 22.174961c-2.825618 8.04687-5.221251 17.301794-8.04687 27.396213a84.359041 84.359041 0 0 0-12.060066 6.019796 53.748175 53.748175 0 0 0-10.442503 12.121493 95.415809 95.415809 0 0 0-10.483454 22.13401c-3.194177 9.295875-4.832217 18.550799-4.033672 26.597669 0.491412 7.494031 2.252304 14.86521 5.221251 21.785927 2.825618 7.207374 6.470257 13.677631 10.872488 18.100338-0.798544 21.765452 0.40951 43.899462 3.214653 66.074424 2.846094 18.550799 7.248325 37.879666 13.309072 58.826098a185.815121 185.815121 0 0 0 27.355262 56.799024c10.872488 16.114215 22.912079 29.423287 36.610186 39.476755A177.583972 177.583972 0 0 0 276.83955 881.093839a173.284117 173.284117 0 0 0 42.261422 11.711984A295.870908 295.870908 0 0 0 360.584326 896c33.518386 0 55.775249-2.559437 90.276459-20.823579l1.064726-0.511887c39.026294-21.253564 76.025514-72.913239 74.919838-105.776409-12.858611-7.248325-34.665014-24.775349-49.120714-39.251525a422.778029 422.778029 0 0 1-38.22775-44.329448 217.040251 217.040251 0 0 1-30.59039-62.85977 606.688928 606.688928 0 0 1-15.295195-64.088301c-3.214653-23.751575-4.811741-47.093639-4.811741-70.886165-5.282678-5.876467-9.418728-12.694807-12.080543-20.147888a82.598148 82.598148 0 0 1-5.221251-23.77205c-0.81902-9.295875 0.798544-18.898882 4.033673-29.812321 3.603687-11.671032 7.22785-20.557397 10.872488-26.208634 3.992722-6.019796 7.616884-10.892964 11.241047-14.087141 3.296555-3.644638 7.432605-6.40883 12.060066-8.067345 2.846094-10.852013 5.241727-20.925956 8.04687-30.610866 2.825618-8.067345 6.060747-16.523725 9.664434-24.980104 4.033673-8.476855 8.45638-14.496651 13.677631-18.919358 4.832217-4.033673 8.435904-7.268801 10.872488-10.094419 2.825618-2.805143 4.791266-5.241727 6.838815-7.657835 1.617564-2.395633 2.825618-5.630761 3.214653-9.664434-0.81902-2.416108 0-7.657835 1.597089-14.496651-1.63804-7.678311-3.235128-13.288597-5.241727-17.322269z"  horiz-adv-x="1024" />

    
    <glyph glyph-name="shuoming" unicode="&#58941;" d="M512 896C229.376 896 0 666.624 0 384s229.376-512 512-512 512 229.376 512 512S794.624 896 512 896z m-38.4-192c19.456 12.8 38.4 25.6 64 25.6s45.056-6.144 64-25.6c19.456-12.8 25.6-31.744 25.6-57.344 0-19.456-6.144-38.4-25.6-57.856-19.456-12.8-38.4-25.6-64-25.6s-45.056 12.8-64 25.6-25.6 32.256-25.6 57.856c0 18.944 6.656 38.4 25.6 57.344z m179.2-627.2c-31.744-12.8-51.2-19.456-70.144-25.6-18.944-6.144-38.4-6.144-64-6.144-38.4 0-64 6.144-82.944 25.6-18.944 19.456-31.744 38.4-31.744 64v31.744c0 12.8 6.144 25.6 6.144 38.4l38.4 128c6.144 12.8 6.144 25.6 6.144 31.744 0 12.8 6.144 19.456 6.144 31.744 0 19.456-6.144 25.6-12.8 31.744h-31.744c-6.144 0-19.456 0-31.744-6.144-12.8 0-19.456-6.144-25.6-6.144l12.8 38.4c25.6 6.144 45.056 19.456 70.656 25.6C460.8 486.4 486.4 492.544 505.856 492.544c38.4 0 64-6.144 82.944-25.6s31.744-38.4 31.744-64v-31.744c0-12.8-6.656-25.6-6.656-38.4l-38.4-128c0-12.8-6.144-19.456-6.144-31.744 0-12.288-6.144-25.6-6.144-31.744 0-19.456 6.144-25.6 12.8-31.744s19.456-6.144 38.4-6.144c6.656 0 19.456 0 32.256 6.144 12.8 0 19.456 6.144 25.6 6.144l-19.456-38.912z"  horiz-adv-x="1024" />

    
    <glyph glyph-name="tuichu" unicode="&#60315;" d="M578.848 235.808H295.552c-13.568 0-22.4 6.208-24.608 17.344-0.416 2.208-0.384 4.576-0.384 6.816v244c0 15.424 8.352 23.616 24 23.616h284.288v7.392l0.032 217.152c0 9.952 4.704 17.888 12.768 20.928 9.248 3.52 17.472 1.888 24.448-5.472 4-4.224 8.352-8.096 12.48-12.224L784 600.192l199.616-199.2c11.104-11.04 11.168-22.688 0.224-33.632l-285.728-285.152c-27.104-27.04-54.336-53.92-81.408-80.96-6.976-6.976-14.752-10.016-24.256-6.4-9.248 3.52-13.6 10.784-13.6 22.24l-0.032 210.272 0.032 8.448zM407.776 770.784v-82.176H191.2c-44.16 0-76.672-32.608-76.672-76.832 0-153.088 0.288-306.144-0.16-459.232-0.128-40.512 30.656-69.664 59.168-75.008 6.272-1.152 12.768-1.696 19.2-1.728 69.056-0.096 138.08-0.064 207.168-0.064h7.776v-81.728c-0.992-0.192-2.112-0.64-3.296-0.64-73.408 0-146.848-0.736-220.256 0.32-71.744 1.024-135.264 55.456-148.96 125.952a158.336 158.336 0 0 0-2.88 30.304c-0.192 154.752-0.608 309.504 0.096 464.256 0.288 64.64 32.384 111.04 88.48 141.184a134.784 134.784 0 0 0 64.16 15.52c72.8 0.192 145.6 0.064 218.4 0.064 1.216 0 2.432-0.128 4.352-0.192z m0 0"  horiz-adv-x="1024" />

    
    <glyph glyph-name="gengduo" unicode="&#59085;" d="M577.639492 318.360508m105.023187 0l236.314134 0q105.023187 0 105.023187-105.023187l0-236.314134q0-105.023187-105.023187-105.023187l-236.314134 0q-105.023187 0-105.023187 105.023187l0 236.314134q0 105.023187 105.023187 105.023187ZM0 896m105.023187 0l236.314134 0q105.023187 0 105.023187-105.023187l0-236.314134q0-105.023187-105.023187-105.023187l-236.314134 0q-105.023187 0-105.023187 105.023187l0 236.314134q0 105.023187 105.023187 105.023187ZM0 318.360508m105.023187 0l236.314134 0q105.023187 0 105.023187-105.023187l0-236.314134q0-105.023187-105.023187-105.023187l-236.314134 0q-105.023187 0-105.023187 105.023187l0 236.314134q0 105.023187 105.023187 105.023187ZM725.987735 474.579509c34.138517-34.126555 87.965891-34.126555 122.092445 0l136.530144 137.845923c34.138517 34.138517 34.138517 87.965891 0 122.092446L848.08018 871.059983c-32.822736 32.822736-87.953929 32.822736-120.81255 0L589.457591 734.517878c-34.138517-34.126555-34.138517-87.953929 0-122.092446z"  horiz-adv-x="1024" />

    
    <glyph glyph-name="shezhi" unicode="&#58885;" d="M836.31640625 384c0 46.0546875 28.91601563 85.078125 69.43359375 100.63476563-9.66796875 37.96875-24.609375 73.74023438-44.12109375 106.61132812C821.90234375 573.58007813 773.9140625 580.78710938 741.39453125 613.39453125c-32.51953125 32.51953125-39.7265625 80.59570313-22.06054688 120.234375C686.375 753.140625 650.60351563 768.08203125 612.63476563 777.75c-15.64453125-40.51757813-54.66796875-69.43359375-100.63476563-69.43359375-46.0546875 0-85.078125 28.91601563-100.63476563 69.43359375-37.96875-9.66796875-73.74023438-24.609375-106.61132812-44.12109375 17.66601563-39.7265625 10.45898438-87.71484375-22.06054688-120.234375-32.51953125-32.51953125-80.59570313-39.7265625-120.23437499-22.1484375C142.859375 558.375 127.91796875 522.60351563 118.25 484.63476563c40.51757813-15.64453125 69.43359375-54.66796875 69.43359375-100.63476563 0-46.0546875-28.91601563-85.078125-69.43359375-100.63476563 9.66796875-37.96875 24.609375-73.74023438 44.12109375-106.61132812C202.09765625 194.41992187000005 250.0859375 187.21289062000005 282.60546875 154.60546875c32.51953125-32.51953125 39.7265625-80.59570313 22.06054688-120.234375C337.625 14.859375 373.39648437-0.08203125 411.36523437-9.75c15.64453125 40.51757813 54.66796875 69.43359375 100.63476563 69.43359375 46.0546875 0 85.078125-28.91601563 100.63476563-69.43359375 37.96875 9.66796875 73.74023438 24.609375 106.61132812 44.12109375-17.66601563 39.7265625-10.45898438 87.71484375 22.06054688 120.234375 32.51953125 32.51953125 80.59570313 39.7265625 120.23437499 22.1484375C881.140625 209.625 896.08203125 245.39648437000005 905.75 283.36523437000005c-40.51757813 15.55664063-69.43359375 54.58007813-69.43359375 100.63476563zM512 275.89453125c-59.67773438 0-108.10546875 48.42773438-108.10546875 108.10546875s48.42773438 108.10546875 108.10546875 108.10546875 108.10546875-48.42773438 108.10546875-108.10546875-48.42773438-108.10546875-108.10546875-108.10546875z"  horiz-adv-x="1024" />

    
    <glyph glyph-name="apartment-home" unicode="&#58886;" d="M569.8048 874.7264a82.0736 82.0736 0 0 1-110.2848 0L13.568 451.2768a41.1392 41.1392 0 0 1 55.0912-61.1072l7.0912 6.7328V-45.05600000000004a82.2784 82.2784 0 0 1 82.2784-82.3808h239.4368v247.7056a57.9328 57.9328 0 0 0 57.9584 58.0096h112.6656a57.9328 57.9328 0 0 0 57.9584-58.0096v-247.7056h245.12a82.2784 82.2784 0 0 1 82.304 82.3808V391.5008c18.2784-16.5376 44.2112-15.2832 59.4176 1.664a41.1392 41.1392 0 0 1-2.9696 58.112L569.8048 874.7008z"  horiz-adv-x="1024" />

    
    <glyph glyph-name="fanhui2" unicode="&#58899;" d="M468.1 575.7V737.3c0.9 8.1-1.3 16.4-7.5 22.7-10.9 10.8-28.4 10.8-39.3 0L147.6 459.9c-5.8-5.7-8.3-13.4-7.9-20.9-0.4-7.5 2.1-15.1 7.9-20.9l272.2-298.4c10.2-8.7 28.8-13.6 40.8-1.6 6.2 6.2 8.9 11.4 8 19.5V302c180.8 0 344.4-130.2 376.8-301.6 21.9 50.2 34.1 105.6 34.1 163.9 0.1 227.2-184.1 411.4-411.4 411.4z"  horiz-adv-x="1024" />

    
    <glyph glyph-name="touxiang" unicode="&#59046;" d=""  horiz-adv-x="1024" />

    
    <glyph glyph-name="add-funding" unicode="&#58905;" d="M955.781 477.984c29.325 19.457 31.397 36.521 31.397 62.227v154.254c0 49.728-40.421 90.099-90.059 90.099h-771.357c-49.632 0-90.053-40.372-90.053-90.099v-154.253c0-25.708 2.445-46.624 33.184-63.168 20.96-9.869 69.652-38.258 69.652-91.18 0-60.115-35.721-79.808-66.74-90.335l-2.816-1.313c-30.081-18.803-33.28-50.009-33.28-62.559v-154.208c0-49.676 40.425-90.144 90.054-90.144h771.359c49.636 0 90.059 40.468 90.059 90.144v154.21c0 33.322-9.216 45.638-32.717 63.026-53.017 27.263-70.124 49.541-70.124 91.181-0.001 41.785 15.889 62.321 71.441 92.121zM678.668 398.837c0-14.24-11.562-25.85-25.759-25.85h-102.74v-25.473h102.741c14.194 0 25.757-11.61 25.757-25.85v-25.664c0-14.24-11.562-25.946-25.759-25.946h-102.74v-76.939c0-14.287-11.562-25.802-25.849-25.802h-25.755c-14.29 0-25.856 11.516-25.856 25.801v76.94h-102.739c-14.192 0-25.755 11.706-25.755 25.946v25.664c0 14.24 11.565 25.85 25.755 25.85h102.74v25.473h-102.741c-14.189 0-25.754 11.611-25.754 25.851v25.663c0 14.24 11.565 25.851 25.755 25.851h67.588l-85.451 91.694c-9.024 10.014-9.024 25.618 0 35.532l16.357 17.818c9.024 9.773 26.509 9.959 35.532 0l107.348-115.2 107.347 115.29c8.933 9.778 26.603 9.778 35.532-0.091l16.544-17.957c9.024-10.012 9.024-25.709 0-35.623l-85.162-91.461h67.303c14.195 0 25.76-11.61 25.76-25.851v-25.664z"  horiz-adv-x="1024" />

    
    <glyph glyph-name="ziyuan" unicode="&#59113;" d="M858.408455 301.204227a214.204948 214.204948 0 0 1-58.780591-8.2081l-127.887503 221.353938a214.734502 214.734502 0 1 1-264.777438-4.236439l-126.563616-219.235719A214.469725 214.469725 0 1 1 425.497343 48.076996h222.148271a214.469725 214.469725 0 1 1 211.821951 253.656786z m-211.821951-175.547441h-221.089161a214.204948 214.204948 0 0 1-76.255902 127.887503L476.599389 474.63345a211.821951 211.821951 0 0 1 126.034061 2.118219l126.298838-218.970941a214.204948 214.204948 0 0 1-81.551451-131.859165z"  horiz-adv-x="1073" />

    
    <glyph glyph-name="baoxiao" unicode="&#58882;" d="M967.6 372.3H858.7V810.5c0 40.3-32.8 73-73 73H240.5c-40.3 0-73-32.8-73-73v-438.2h-109c-31.2 0-56.6-24.8-56.6-55.3 0-12.6 4.5-24.9 12.5-34.7 1.7-2.4 3.7-4.6 5.9-6.5l433.3-374c14.2-13.2 32.8-20.5 52.5-20.5 19.6 0 38.2 7.2 50.9 19.1l448.5 374.9c2.7 2.3 5.1 5 7 7.8 7.6 9.6 11.8 21.5 11.8 33.8-0.1 30.6-25.5 55.4-56.7 55.4zM659.1 427.1c20.2 0 36.5 16.3 36.5 36.5s-16.3 36.5-36.5 36.5H549.6v3.1l108 108c14.3 14.3 14.3 37.4 0 51.6-14.3 14.3-37.4 14.3-51.6 0L513.1 570l-92.9 92.9c-14.3 14.3-37.4 14.3-51.6 0-14.3-14.3-14.3-37.4 0-51.6l108-108v-3.1H367c-20.2 0-36.5-16.3-36.5-36.5s16.3-36.5 36.5-36.5h109.5v-54.8H367c-20.2 0-36.5-16.3-36.5-36.5s16.3-36.5 36.5-36.5h109.5v-73c0-20.2 16.3-36.5 36.5-36.5s36.5 16.3 36.5 36.5v73H659c20.2 0 36.5 16.3 36.5 36.5s-16.3 36.5-36.5 36.5H549.6v54.8h109.5v-0.1z"  horiz-adv-x="1024" />

    
    <glyph glyph-name="yanjiu" unicode="&#59114;" d="M869.620457 169.992636L660.295834 381.384963c-14.352298 14.352298-22.623114 34.907709-22.623114 55.463119V752.963535h51.327711c12.284594 0 20.55541 8.270816 20.555411 20.55541 0 12.284594-8.270816 20.55541-20.555411 20.555411H613.103531c-12.284594 0-18.487706-8.270816-18.487706-20.555411v-336.670863c0-32.840005 12.284594-61.544601 34.907709-84.167716l61.544601-61.544602c-34.907709-14.352298-100.587718-28.704597-178.552322 10.216891-55.463119 26.636893-108.736905 26.636893-149.847725 18.487706l32.840004 32.840005c22.623114 22.623114 36.975413 53.395415 36.975413 84.167716V773.397316c0 12.284594-10.21689 20.55541-22.623114 20.55541h-75.8969c-12.284594 0-20.55541-8.270816-20.55541-20.55541 0-12.284594 8.270816-20.55541 20.55541-20.555411h57.530823v-316.115453c0-20.55541-10.21689-41.110821-24.690818-55.463119L155.289539 169.992636c-32.840005-32.840005-43.056895-80.032308-24.690818-123.089203 18.487706-45.124599 61.544601-73.950826 110.804608-73.950826h539.792375c49.260007 0 92.316902 28.704597 110.804608 73.950826 18.609336 43.056895 10.46015 90.249198-22.379855 123.089203z m0 0"  horiz-adv-x="1024" />

    
    <glyph glyph-name="chengguo" unicode="&#59109;" d="M902.721646 710.509714h-92.452572a1111.771429 1111.771429 0 0 1 3.803429 136.045715v14.628571A35.108571 35.108571 0 0 1 779.256503 896H157.542217a35.401143 35.401143 0 0 1-33.938286-34.816v-53.248c0-32.475429 1.755429-65.243429 4.681143-97.426286H29.688503a33.645714 33.645714 0 0 1-22.820572-13.750857 38.034286 38.034286 0 0 1-6.436571-27.209143l2.048-17.261714c13.165714-110.884571 72.850286-187.245714 158.866286-204.8l23.405714-4.681143h2.048a656.530286 656.530286 0 0 1 29.257143-66.998857 445.878857 445.878857 0 0 1 107.373714-141.019429 234.057143 234.057143 0 0 1 110.299429-54.125714v-148.333714h-101.229715a35.401143 35.401143 0 0 1-34.230857-36.278857 37.449143 37.449143 0 0 1 10.24-25.746286 32.475429 32.475429 0 0 1 23.990857-10.532571h272.384a33.645714 33.645714 0 0 1 23.990858 10.532571 37.156571 37.156571 0 0 1 9.947428 25.746286 35.401143 35.401143 0 0 1-33.938286 36.278857h-102.107428v148.333714a235.52 235.52 0 0 1 110.006857 53.833143 448.804571 448.804571 0 0 1 107.666286 141.019429 721.773714 721.773714 0 0 1 29.257143 67.291428h2.340571l23.405714 4.681143c86.308571 17.261714 146.285714 93.622857 158.866286 204.8l1.755429 17.554286a31.890286 31.890286 0 0 1 0 5.266285 38.326857 38.326857 0 0 1-10.24 25.453715 31.305143 31.305143 0 0 1-23.698286 9.947428M74.15936 637.952h61.147429a956.416 956.416 0 0 1 24.576-114.980571 144.530286 144.530286 0 0 0-85.723429 114.980571m551.204571-13.165714l-58.514285-60.562286a20.48 20.48 0 0 1-5.558857-18.139429l13.458285-85.430857a20.772571 20.772571 0 0 0-7.314285-20.187428 18.139429 18.139429 0 0 0-20.187429-1.755429l-69.924571 40.374857a17.261714 17.261714 0 0 1-17.554286 0l-71.094857-40.374857a18.139429 18.139429 0 0 0-20.187429 1.755429 20.187429 20.187429 0 0 0-7.314286 19.894857l13.458286 84.553143a20.48 20.48 0 0 1-5.558857 18.139428l-58.514286 60.562286a21.357714 21.357714 0 0 0-4.973714 21.065143 19.602286 19.602286 0 0 0 16.676571 15.213714l79.286858 12.580572a19.309714 19.309714 0 0 1 14.336 11.117714l35.401142 77.824a19.309714 19.309714 0 0 0 17.261715 11.702857 19.017143 19.017143 0 0 0 16.969143-11.702857l35.693714-77.824a19.309714 19.309714 0 0 1 14.336-11.117714l79.286857-12.580572a19.602286 19.602286 0 0 0 15.506286-14.043428 22.235429 22.235429 0 0 0-4.973715-21.065143m151.844572-101.522286c4.681143 16.384 9.069714 33.060571 12.873143 49.737143 4.388571 21.357714 8.484571 43.008 11.995428 64.658286h60.854857a143.945143 143.945143 0 0 0-85.723428-114.395429"  horiz-adv-x="1120" />

    
    <glyph glyph-name="xiangmu1" unicode="&#58883;" d="M756.306 371.405H455.27c-25.088 0-45.158 20.07-45.158 45.158s20.07 45.159 45.158 45.159h301.026c25.088 0 45.158-20.07 45.158-45.159s-20.07-45.158-45.158-45.158zM242.053 238.459c0-27.597 20.07-47.657 47.667-47.657 27.587 0 47.657 22.569 47.657 47.657 0 25.088-20.07 47.667-47.657 47.667-27.596 0-47.667-20.07-47.667-47.667z m0 178.104c0-27.586 20.07-47.657 47.667-47.657 27.587 0 47.657 22.58 47.657 47.657 0 25.088-20.07 47.667-47.657 47.667-27.596 0-47.667-22.579-47.667-47.667z m514.253-223.252H455.27c-25.088 0-45.158 20.07-45.158 45.158 0 25.078 20.07 45.148 45.158 45.148h301.026c25.088 0 45.158-20.07 45.158-45.158s-20.07-45.159-45.158-45.159z m205.701-145.5V612.25c0 67.727-62.72 62.71-62.72 62.71h-353.7c-20.07 0-32.614 10.035-32.614 10.035s-15.053 25.088-42.64 65.218c-25.088 45.159-57.702 37.632-57.702 37.632H139.203c-77.763-0.01-77.763-72.765-77.763-72.765v-662.242c0-82.78 62.71-72.745 62.71-72.745h782.663c65.23 0 55.194 67.728 55.194 67.728z"  horiz-adv-x="1024" />

    
    <glyph glyph-name="tongji" unicode="&#58974;" d="M568.765217 896h-14.469565v-458.573913h466.365218v7.791304C1020.66087 693.426087 818.086957 896 568.765217 896zM467.478261 347.26956499999994V838.121739C208.13913 830.330435 0 616.626087 0 355.06087 0 87.93043499999999 215.930435-128 483.06087-128c126.886957 0 242.643478 48.973913 329.460869 130.226087l-345.043478 345.043478zM1080.765217 355.06087H606.608696L934.956522 26.71304299999997c87.930435 82.365217 143.582609 198.121739 145.808695 328.347827z"  horiz-adv-x="1080" />

    
    <glyph glyph-name="guanli" unicode="&#58884;" d="M148.48 709.6320000000001q18.432 22.528 36.864 41.984 14.336 17.408 30.208 32.768t24.064 22.528q11.264 9.216 24.064 16.384t34.304 7.168l442.368 0q13.312 0 30.72-5.632t33.792-23.04q8.192-10.24 21.504-25.6t25.6-29.696q14.336-17.408 28.672-36.864l-732.16 0zM979.968 403.456q0-32.768-21.504-55.296t-61.44-22.528l-756.736 0q-38.912 0-61.952 22.528t-23.04 55.296l0 146.432q0 32.768 20.48 56.32t66.56 23.552l753.664 0q47.104 0 65.536-23.552t18.432-56.32l0-146.432zM593.92 477.184q0 13.312-6.656 18.944t-17.92 5.632l-103.424 0q-11.264 0-18.432-7.168t-7.168-17.408q1.024-13.312 7.68-19.456t17.92-6.144l103.424 0q23.552 0 24.576 25.6zM976.896 32.76800000000003q0-32.768-25.088-56.32t-64-22.528l-750.592 0q-32.768 0-58.88 23.04t-26.112 64l0 137.216q0 33.792 20.992 56.832t67.072 23.04l751.616 0q43.008 0 64-23.04t20.992-55.808l0-146.432zM590.848 105.47199999999998q0 10.24-6.656 17.408t-17.92 7.168l-103.424 0q-11.264 0-18.432-7.168t-7.168-17.408 7.168-17.408 18.432-7.168l103.424 0q11.264 0 17.92 7.168t6.656 17.408z"  horiz-adv-x="1024" />

    
    <glyph glyph-name="gongzuo" unicode="&#58964;" d="M895.621-20.124H126.192c-35.406 0-64.112 28.7-64.112 64.113V300.472h320.588c0-35.413 28.713-64.126 64.126-64.126h128.231c35.413 0 64.12 28.713 64.12 64.126h320.602v-256.483c0-35.413-28.713-64.113-64.126-64.113zM575.025 428.709H446.794c-35.413 0-64.126-28.713-64.126-64.112H62.08V621.073c0 35.407 28.706 64.113 64.112 64.113h192.363V749.31c0 35.413 28.706 64.106 64.112 64.106h256.477c35.412 0 64.125-28.693 64.125-64.106v-64.125H895.62c35.413 0 64.126-28.706 64.126-64.113v-256.476H639.144c0 35.4-28.705 64.112-64.119 64.112z m0 320.602H446.794c-35.413 0-64.126-28.713-64.126-64.125h256.477c0 35.413-28.706 64.125-64.12 64.125z"  horiz-adv-x="1024" />

    
    <glyph glyph-name="shenpi" unicode="&#58887;" d="M421 293.5V401.9c-81.9 35.6-134.9 116.3-135 205.6 0 123.9 101 224.3 225 224.3 124 0.1 224.7-100.3 225-224.3 0-92-55.6-171-135-205.6v-108.4h202.4c29.8 0.1 58.5-11.6 79.6-32.7 21.1-21 33-49.6 33-79.5v-112.1H105.9V181.4c0 62 50.7 112.1 112.7 112.1H421zM150.9 24.4h720v-89.7h-720v89.7z m0 0"  horiz-adv-x="1024" />

    
    <glyph glyph-name="lunwentijiao" unicode="&#58965;" d="M909.312 637.952c8.192-4.096 12.288-16.384 12.288-24.576v-704.512c0-20.48-16.384-36.864-36.864-36.864H139.264c-20.48 0-36.864 16.384-36.864 36.864V859.136C102.4 879.616 118.784 896 139.264 896H634.88c8.192 0 20.48-4.096 24.576-12.288l249.856-245.76z m-73.728-40.96L618.496 814.08v-217.088h217.088zM286.72 416.768c-4.096 0-8.192-4.096-8.192-8.192v-53.248c0-4.096 4.096-8.192 8.192-8.192h446.464c4.096 0 8.192 4.096 8.192 8.192v53.248c0 4.096-4.096 8.192-8.192 8.192H286.72z m0-155.648c-4.096 0-8.192-4.096-8.192-8.192v-53.248c0-4.096 4.096-8.192 8.192-8.192h212.992c4.096 0 8.192 4.096 8.192 8.192v53.248c0 4.096-4.096 8.192-8.192 8.192H286.72z"  horiz-adv-x="1024" />

    
    <glyph glyph-name="chengguo1" unicode="&#59142;" d="M461.312-128l-404.48 235.008L55.296 574.976l404.48-235.008 1.536-467.968zM509.44 425.984L104.96 660.992 512 896l404.48-235.008-407.04-235.008zM902.656 464.384v-320.512l-279.552-161.28v320.512l279.552 161.28m63.488 110.592l-407.04-235.008V-128l409.6 235.008V574.976z"  horiz-adv-x="1024" />

    
    <glyph glyph-name="tongji1" unicode="&#59060;" d="M818.779746 119.955977V496.178312c0 25.949225-22.705572 48.654798-48.654798 48.654798h-48.648879c-25.943306 0-48.648879-22.705572-48.648878-48.654798v-376.222335h-48.654798v518.925318c0 25.949225-22.693734 48.654798-48.642959 48.654797h-48.654798c-25.943306 0-48.648879-22.705572-48.648879-48.654797v-518.925318h-48.642959v282.162312c0 25.955145-22.705572 48.654798-48.654798 48.654798h-48.648879c-25.949225 0-48.654798-22.699653-48.654797-48.654798v-282.162312H251.205549v567.580115c0 25.943306-22.711491 48.648879-48.654798 48.648879C176.601526 736.184971 153.895954 713.479399 153.895954 687.536092V74.550751c0-25.949225 22.705572-48.654798 48.648878-48.654797H815.530173c25.949225 0 48.654798 22.705572 48.654798 48.654797 0 25.943306-19.461919 45.405225-45.405225 45.405226"  horiz-adv-x="1024" />

    
    <glyph glyph-name="huiyi" unicode="&#59102;" d="M170.666667 767.616h682.666666a85.333333 85.333333 0 0 0 85.333334-85.333333v-416a85.333333 85.333333 0 0 0-85.333334-85.333334H170.666667a85.333333 85.333333 0 0 0-85.333334 85.333334v416a85.333333 85.333333 0 0 0 85.333334 85.333333z m532.181333-704l80.277333-80.277333a40 40 0 1 0-56.554666-56.554667l-136.853334 136.832h-157.909333l-136.853333-136.832a40 40 0 0 0-56.554667 56.554667l80.277333 80.277333H125.333333a40 40 0 1 0 0 80h773.333334a40 40 0 1 0 0-80h-195.818667z m-207.232 293.866667c14.506667-16.533333 39.616-18.24 56.256-3.84l236.842667 205.056a40 40 0 0 1-52.352 60.501333l-206.826667-179.093333-87.786667 100.074666a40.021333 40.021333 0 0 1-58.176 2.112l-151.936-149.888a40 40 0 1 1 56.192-56.96l121.749334 120.106667 86.037333-98.069333z"  horiz-adv-x="1024" />

    
    <glyph glyph-name="bumen" unicode="&#59022;" d="M620.052275 875.008c22.528 0.512 44.544-8.704 60.416-24.576 14.336-14.336 23.04-32.768 24.576-52.736v-203.264c0.512-22.528-8.704-44.032-24.576-59.904-14.336-14.336-32.768-22.528-52.736-24.064h-84.48v-101.888h304.128l4.096-4.096v-146.432h81.92c44.544-1.024 82.432-33.792 89.6-77.824l1.024-6.656v-195.584c0-22.528-8.704-44.032-24.576-59.904-14.336-14.336-32.768-22.528-52.736-24.064H706.580275c-22.528-0.512-44.544 8.704-60.416 24.576-14.336 13.824-23.04 32.768-24.576 52.736v203.264c-0.512 22.528 8.704 44.032 24.576 59.904 14.336 14.336 32.768 22.528 52.736 24.064h83.968v81.92H230.932275v-81.92H317.460275c22.528 0.512 44.544-8.704 60.416-24.576 14.336-14.336 23.04-32.768 24.576-52.736v-203.264c0.512-22.528-8.704-44.032-24.576-59.904-14.336-14.336-32.768-22.528-52.736-24.064H85.012275c-22.528-0.512-44.544 8.704-60.416 24.576C10.260275-67.584 1.556275-48.64 0.020275-28.672v203.264c-0.512 22.528 8.704 44.032 24.576 59.904 14.336 14.336 32.768 22.528 52.736 24.064h89.6V403.968l4.096 4.096h309.248V509.952h-87.04c-22.528-0.512-44.544 8.704-60.416 24.576-14.336 13.824-22.528 32.768-24.576 52.736V790.016c0 22.528 8.704 44.544 24.576 60.416 14.336 14.336 32.768 22.528 52.736 24.064l7.68 0.512h226.816z"  horiz-adv-x="1024" />

    
    <glyph glyph-name="rili" unicode="&#58954;" d="M194.56 481.28h583.68c20.48 0 40.96-20.48 40.96-40.96s-20.48-40.96-40.96-40.96H194.56c-20.48 0-40.96 20.48-40.96 40.96s20.48 40.96 40.96 40.96zM286.72 896c30.72 0 51.2-20.48 51.2-40.96v-168.96c0-15.36-10.24-30.72-25.6-35.84-15.36-10.24-35.84-10.24-51.2-5.12-15.36 10.24-25.6 20.48-25.6 35.84V855.04c0 10.24 5.12 20.48 15.36 30.72 10.24 5.12 25.6 10.24 35.84 10.24zM716.8 896c30.72 0 51.2-20.48 51.2-40.96v-168.96c0-25.6-20.48-46.08-51.2-46.08s-51.2 20.48-51.2 40.96V855.04c0 20.48 20.48 40.96 51.2 40.96zM102.4 691.2v-716.8h819.2V691.2H102.4z m-15.36 102.4h855.04c20.48 0 46.08-10.24 61.44-25.6s20.48-35.84 20.48-56.32v-752.64c0-46.08-35.84-81.92-87.04-81.92H87.04C35.84-128 0-92.16 0-46.08V711.68c0 20.48 10.24 46.08 25.6 61.44S61.44 793.6 87.04 793.6zM194.56 245.76h332.8c20.48 0 40.96-20.48 40.96-40.96s-20.48-40.96-40.96-40.96H194.56c-20.48 0-40.96 15.36-40.96 40.96s20.48 40.96 40.96 40.96z m501.76 0h81.92c20.48 0 40.96-20.48 40.96-40.96s-20.48-40.96-40.96-40.96h-81.92c-20.48 0-40.96 20.48-40.96 40.96s15.36 40.96 40.96 40.96z"  horiz-adv-x="1024" />

    
    <glyph glyph-name="daochu" unicode="&#59052;" d="M904.704-59.904H197.12c-65.024 0-117.76 52.224-117.76 116.736v233.984c-1.024 21.504 15.872 39.936 37.376 40.96s39.936-15.872 40.96-37.376V56.832c0-21.504 17.408-38.912 39.424-38.912h707.584c21.504 0 39.424 17.408 39.424 38.912v233.984c0 21.504 17.408 38.912 39.424 38.912 21.504 0 39.424-17.408 39.424-38.912v-233.984c-0.512-64.512-53.248-116.736-118.272-116.736M523.264 871.936l-235.52-233.472c-14.336-15.872-13.312-40.96 3.072-55.296 14.848-13.312 37.376-13.312 52.224 0l235.52 233.472c15.36 15.36 15.36 39.936 0 55.296-15.36 14.848-39.936 14.848-55.296 0M814.08 638.464L578.56 871.936c-15.36 15.36-40.448 15.36-55.296 0-15.36-15.36-15.36-39.936 0-55.296l235.52-233.472c15.36-15.36 40.448-15.36 55.296 0 15.36 15.36 15.36 39.936 0 55.296M590.336 259.584V844.288c-1.536 21.504-19.968 37.888-41.984 36.352-19.968-1.024-35.84-16.896-36.864-36.352v-584.704c1.536-21.504 19.968-37.888 41.984-36.352 19.968 1.024 35.328 16.384 36.864 36.352"  horiz-adv-x="1101" />

    
    <glyph glyph-name="up" unicode="&#58881;" d="M507.58399999 159.93600000000004a32.896 32.896 0 0 0-23.35999999 9.664L110.912 542.912a33.024 33.024 0 0 0 46.72 46.656l373.312-373.248a33.024 33.024 0 0 0-23.36000001-56.384M507.58399999 159.93600000000004a32.896 32.896 0 0 0-23.35999999 56.32l382.144 382.08a33.024 33.024 0 0 0 46.656-46.656l-382.016-382.08a33.152 33.152 0 0 0-23.42400001-9.664"  horiz-adv-x="1024" />

    
    <glyph glyph-name="up1" unicode="&#58953;" d="M516.41600001 608.0640000000001a32.896 32.896 0 0 0 23.35999999-9.664L913.088 225.08799999999997a33.024 33.024 0 0 0-46.72-46.656l-373.312 373.248a33.024 33.024 0 0 0 23.36000001 56.384M516.41600001 608.0640000000001a32.896 32.896 0 0 0 23.35999999-56.32l-382.144-382.08a33.024 33.024 0 0 0-46.656 46.656l382.016 382.08a33.152 33.152 0 0 0 23.42400001 9.664"  horiz-adv-x="1024" />

    
    <glyph glyph-name="wenjian" unicode="&#58983;" d="M820.7 31.9H92.5c-14.5 0-25 13.8-21.2 27.7l117.1 433.1c2.6 9.6 11.3 16.3 21.2 16.3h728.2c14.5 0 25-13.8 21.2-27.7L841.9 48.1c-2.6-9.6-11.3-16.2-21.2-16.2zM128.3 534.8c12.9 32.2 32.2 38.7 58 38.7h651.3v82.1c0 11.6-9.4 21.1-21.1 21.1H523l-6.3 24.9c-5 19.5-22.5 33.1-42.6 33.1H272.5c-20.1 0-37.7-13.6-42.6-33.1l-6.3-24.9H84.8c-11.6 0-21.1-9.4-21.1-21.1V279l64.6 255.8z"  horiz-adv-x="1024" />

    
    <glyph glyph-name="wenjian1" unicode="&#58966;" d="M620.8 896H182.4C121.6 896 73.6 851.2 73.6 793.6v-819.2c0-57.6 48-102.4 108.8-102.4h659.2c60.8 0 108.8 44.8 108.8 102.4V588.8L620.8 896z m-54.4-358.4V819.2l300.8-281.6h-300.8z"  horiz-adv-x="1024" />

    
    <glyph glyph-name="jian" unicode="&#58898;" d="M64.853333 442.026667h897.706667c34.133333 0 64.853333-27.306667 64.853333-61.44s-27.306667-58.026667-64.853333-58.026667H64.853333C27.306667 322.56 0 349.866667 0 384s27.306667 58.026667 64.853333 58.026667z"  horiz-adv-x="1027" />

    
    <glyph glyph-name="jia" unicode="&#59018;" d="M455.111111 440.888889V782.222222c0 31.419733 25.469156 56.888889 56.888889 56.888889s56.888889-25.469156 56.888889-56.888889v-341.333333h341.333333c31.419733 0 56.888889-25.469156 56.888889-56.888889s-25.469156-56.888889-56.888889-56.888889h-341.333333v-341.333333c0-31.419733-25.469156-56.888889-56.888889-56.888889s-56.888889 25.469156-56.888889 56.888889v341.333333H113.777778c-31.419733 0-56.888889 25.469156-56.888889 56.888889s25.469156 56.888889 56.888889 56.888889h341.333333z"  horiz-adv-x="1024" />

    
    <glyph glyph-name="wenjian2" unicode="&#58917;" d="M919.04 479.54c0 17.868-5.12 22.988-22.989 22.988H130.304c-17.869 0-25.6-5.12-25.6-25.6v-400.742c0-53.607 22.989-76.8 74.035-76.8h668.826c51.2 0 74.035 22.988 74.035 74.035-2.56 138.086-2.56 270.848-2.56 406.118z m-793.856 63.846H875.52c43.418 0 43.418 0 43.418 40.96 0 48.486-20.48 66.56-66.56 66.56H528.486c-40.96 0-40.96 0-40.96 40.96 0 43.417-20.48 61.44-63.795 61.44h-255.13c-46.08 2.56-63.795-15.36-66.56-61.44v-125.543c0.359-20.429 5.479-22.937 23.143-22.937z"  horiz-adv-x="1024" />

    
    <glyph glyph-name="qunzu" unicode="&#58939;" d="M1240.177778 466.321569c32.794771 32.794771 52.203922 71.613072 52.203921 117.124183 0 84.329412-71.613072 155.942484-155.942483 155.942483 32.794771-38.818301 52.203922-91.022222 52.203921-149.249673 0-64.920261-32.794771-129.840523-78.305882-168.658823 104.407843-45.511111 176.020915-136.533333 201.453595-246.964706h64.920261v64.920261c13.385621 103.738562-51.534641 188.067974-136.533333 226.886275zM647.864052 420.810458C602.352941 466.321569 570.227451 525.218301 570.227451 596.162092c0 58.227451 19.40915 110.431373 52.203922 149.249673-84.329412-6.69281-149.918954-78.305882-149.918955-162.635294 0-45.511111 19.40915-91.022222 52.203922-117.124183C439.717647 427.503268 374.797386 336.481046 374.797386 238.766013v-64.920261h64.920261C472.512418 284.277124 544.12549 375.299346 647.864052 420.810458z m384.167321 0c45.511111 38.818301 78.305882 103.738562 78.305882 168.658823 0 123.816993-104.407843 227.555556-227.555556 227.555556-123.816993 0-227.555556-103.738562-227.555555-227.555556 0-64.920261 32.794771-129.840523 78.305882-168.658823-124.486275-58.227451-215.508497-188.067974-215.508497-331.294118v-58.227451h735.53987v58.227451c-6.69281 143.226144-91.022222 273.066667-221.532026 331.294118z"  horiz-adv-x="1706" />

    
    <glyph glyph-name="xiangmu" unicode="&#59161;" d="M512.022656-128.025344c-7.065598 0-14.182396 1.4592-20.787195 4.403199l-460.799885 204.799949a51.199987 51.199987 0 0 0 41.59999 93.593576L512.022656-20.812571l440.01269 195.583951a51.199987 51.199987 0 0 0 41.59999-93.593576l-460.799885-204.799949a51.353587 51.353587 0 0 0-20.812795-4.403199z m0 255.999936c-7.065598 0-14.182396 1.4592-20.787195 4.403199l-460.799885 204.799949a51.199987 51.199987 0 0 0 41.59999 93.593576L512.022656 235.187365l440.01269 195.583951a51.199987 51.199987 0 0 0 41.59999-93.593576l-460.799885-204.799949a51.353587 51.353587 0 0 0-20.812795-4.403199zM993.635336 686.771252l-460.799885 204.799949a50.995187 50.995187 0 0 1-41.59999 0l-460.799885-204.799949a51.251187 51.251187 0 0 1 0-93.593576l460.799885-204.799949a51.123187 51.123187 0 0 1 41.59999 0l460.799885 204.799949a51.251187 51.251187 0 0 1 0 93.593576z"  horiz-adv-x="1024" />

    
    <glyph glyph-name="zujian" unicode="&#58880;" d="M992.258717 188.421914a1020.13223 1020.13223 0 0 1-335.760762 389.398095H365.488247a1014.953894 1014.953894 0 0 1-351.61542-429.226533 205.471266 205.471266 0 0 1 31.965038-202.338692 208.92349 208.92349 0 0 1 172.611206-73.583518h600.942719a201.635461 201.635461 0 0 1 172.611207 315.814578z m-319.650382-39.828438a30.686437 30.686437 0 1 0 0-61.308943h-127.860153v-91.995381a31.965038 31.965038 0 0 0-63.930077 0V87.284533h-127.860153a30.686437 30.686437 0 1 0 0 61.308943h127.860153v61.308943h-127.860153a30.686437 30.686437 0 1 0 0 61.308944h70.323084l-67.12658 107.338598a26.594912 26.594912 0 0 0 12.786015 39.828438 33.11578 33.11578 0 0 0 44.751054-12.274575l86.369533-137.961105h28.768535l86.369533 137.961105a36.248353 36.248353 0 0 0 44.751053 12.274575 30.302856 30.302856 0 0 0 12.786016-39.828438l-70.323084-107.338598h70.323084a30.686437 30.686437 0 1 0 0-61.308944h-127.860153v-61.308943zM318.371781 896h392.338879c67.19051 0 60.094272-52.998033 56.578118-67.19051l-77.738973-180.282816h-353.533323L254.697425 835.905728C251.18127 853.550429 247.601186 896 300.66315 896z"  horiz-adv-x="1027" />

    
    <glyph glyph-name="renyuan" unicode="&#59117;" d="M512-64c-247.424 0-448 63.04-448 140.8 0 62.08 127.616 114.56 304.64 133.376l4.672-51.648c-105.472-15.104-188.8-45.952-188.8-81.664 0-50.56 166.656-91.52 327.488-91.52s327.424 40.96 327.424 91.52c0 36.096-85.184 67.264-192.512 82.176l4.736 51.584c178.944-18.432 308.352-71.36 308.352-133.76C960-0.96 759.424-64 512-64z m56.32 107.2H452.032l-24.576 281.728H336.512V548.736c0 61.632 159.424 55.488 173.696 54.848 14.336 0.64 174.848 6.784 174.848-54.848v-223.808h-92.16l-24.576-281.728z m-59.136 600.96c-53.376 0-96.64 42.048-96.64 93.888S455.808 832 509.184 832s96.64-42.048 96.64-93.952c0-51.84-43.328-93.888-96.64-93.888z"  horiz-adv-x="1024" />

    
    <glyph glyph-name="leixing" unicode="&#59359;" d="M336.970752 840.145455H91.247988a80.151273 80.151273 0 0 1-57.939781-25.078691A87.635782 87.635782 0 0 1 9.30937 754.501818v-256.930909c0-22.714182 8.638836-44.497455 23.998837-60.564945A80.188509 80.188509 0 0 1 91.247988 411.927273h245.722764a80.188509 80.188509 0 0 1 57.939782 25.078691A87.6544 87.6544 0 0 1 418.90937 497.570909V754.501818c0 22.714182-8.620218 44.497455-23.998836 60.564946A80.151273 80.151273 0 0 1 336.98937 840.145455z m653.181673-145.761746l-177.058909 177.152a83.502545 83.502545 0 0 1-118.095128 0l-177.152-177.152a83.502545 83.502545 0 0 1 0-118.095127l177.152-177.133382a83.502545 83.502545 0 0 1 118.095128 0l177.133381 177.133382a83.521164 83.521164 0 0 1 0.018619 118.095127h-0.093091zM336.98937 300.218182H91.247988a80.188509 80.188509 0 0 1-57.9584-25.115927A87.6544 87.6544 0 0 1 9.30937 214.500073V-42.356364C9.30937-89.646545 45.987188-128 91.247988-128h245.722764C382.212934-128 418.90937-89.646545 418.90937-42.356364V214.500073a87.6544 87.6544 0 0 1-23.980218 60.602182A80.188509 80.188509 0 0 1 336.98937 300.218182z m539.871418 0H631.156643c-45.242182 0-81.92-38.353455-81.92-85.643637v-256.930909c0-47.290182 36.677818-85.643636 81.92-85.643636h245.76c45.242182 0 81.92 38.353455 81.92 85.643636V214.500073a87.673018 87.673018 0 0 1-23.980218 60.602182A80.169891 80.169891 0 0 1 876.916643 300.218182h-0.074473z"  horiz-adv-x="1024" />

    
    <glyph glyph-name="qidong" unicode="&#59071;" d="M386.409199 159.378952c-2.99978 0-9.099334 0-12.099114 2.99978-9.099334 2.99978-12.099114 12.099114-12.099114 21.198447V582.847936c0 9.099334 6.099553 18.198667 12.099114 21.198447 9.099334 2.99978 18.198667 2.99978 24.198227 0l344.874741-199.685374c9.099334-2.99978 12.099114-12.099114 12.099114-21.198448s-6.099553-18.198667-12.099114-21.198447L398.508312 162.378732c-6.099553 0-9.099334-2.99978-12.099113-2.99978z m33.297561 368.972975V237.973195l251.08161 145.189366-251.08161 145.189366zM513.399897-128c-69.594903 0-136.090032 12.099114-199.685374 39.297122-60.495569 24.198228-114.991578 63.495349-163.388033 108.892024C102.030027 65.585821 65.732686 123.08161 41.534458 183.577179 14.33645 247.072529 2.237336 313.667651 2.237336 383.162561s12.099114 136.090032 39.297122 199.685375c24.198228 60.495569 63.495349 114.991578 108.892024 163.388033S253.318946 830.929766 313.814516 855.127994c127.090692 54.496009 272.280058 54.496009 396.270976 0 60.495569-24.198228 114.991578-63.495349 163.388033-108.892025 48.396455-48.396455 84.693797-102.892464 108.892024-163.388033 27.198008-63.495349 39.297122-130.090472 39.297122-199.685375s-12.099114-136.090032-39.297122-199.685374c-24.198228-60.495569-63.495349-114.991578-108.892024-163.388033-45.396675-48.396455-102.892464-84.693797-163.388033-108.892025-60.495569-24.098235-130.090472-39.197129-196.685595-39.197129z m0 955.829993c-60.495569 0-117.991358-12.099114-172.387374-36.297342-51.396236-21.198447-99.792691-54.496009-142.189585-93.79313s-72.594683-87.693577-93.793131-142.189586c-24.198228-54.496009-36.297342-111.891805-36.297341-172.387374s12.099114-117.991358 36.297341-172.387374c21.198447-51.396236 54.496009-99.792691 93.793131-142.189585 39.297122-39.297122 87.693577-72.594683 142.189585-93.793131 108.892025-45.396675 235.982716-45.396675 344.874741 0 51.396236 21.198447 99.792691 54.496009 142.189586 93.793131 39.297122 39.297122 72.594683 87.693577 93.79313 142.189585 24.198228 54.496009 36.297342 111.891805 36.297342 172.387374s-12.099114 117.991358-36.297342 172.387374c-21.198447 51.396236-54.496009 99.792691-93.79313 142.189586-39.297122 39.297122-87.693577 72.594683-142.189586 93.79313-54.496009 24.198228-111.991797 36.297342-172.487367 36.297342z"  horiz-adv-x="1024" />

    
    <glyph glyph-name="refresh" unicode="&#58892;" d="M888.23000001 503.917L718.385 503.91699999c-21.66789999 0-39.1942 17.5561-39.1942 39.19610001 0 21.6382 17.5273 39.1942 39.1942 39.19419999l68.1819 1e-8c-61.5039 86.9065-162.641 143.715-277.223 143.715-187.607 0-339.692-152.086-339.692-339.69 0-187.606 152.086-339.691 339.692-339.691 187.606 0 339.691 152.086 339.691 339.691 0 21.6382 17.5264 39.1942 39.19329999 39.1942 21.63999999 0 39.1971-17.5561 39.19710001-39.1942 0-230.899-187.2-418.082-418.082-418.082-230.88499999 0-418.08299999 187.182-418.083 418.082 0 230.898 187.198 418.081 418.083 418.08100001 140.127 0 263.895-69.0866 339.691-174.93500001l0 70.4143c0 21.63999999 17.5264 39.1952 39.1933 39.1952 21.63999999 0 39.1971-17.5552 39.1971-39.1952l0-156.78C927.427 521.473 909.868 503.917 888.23000001 503.917Z"  horiz-adv-x="1024" />

    
    <glyph glyph-name="jinyong" unicode="&#59986;" d="M516 832C271.2 832 72 632.8 72 388S271.2-56 516-56 960 143.2 960 388 760.8 832 516 832z m0-821.6c-208 0-377.6 169.6-377.6 377.6 0 208 169.6 377.6 377.6 377.6 208 0 377.6-169.6 377.6-377.6 0-208-169.6-377.6-377.6-377.6z m208.8 411.2H307.2c-18.4 0-33.6-15.2-33.6-33.6 0-18.4 15.2-33.6 33.6-33.6h417.6c18.4 0 33.6 15.2 33.6 33.6 0 18.4-15.2 33.6-33.6 33.6z"  horiz-adv-x="1024" />

    


  </font>
</defs>
</svg>
